<mxfile host="app.diagrams.net" modified="2023-06-26T13:49:07.497Z" agent="Mozilla/5.0 (Macintosh; Intel Mac OS X 10_15_7) AppleWebKit/537.36 (KHTML, like Gecko) Chrome/114.0.0.0 Safari/537.36" etag="W6tDnopg_zNBIuULohZT" version="21.5.0" type="google" pages="4">
  <diagram name="controlnet-in-stable-diffusion" id="Isco8Q5WnUq6poNQ_dvE">
    <mxGraphModel grid="1" page="1" gridSize="10" guides="1" tooltips="1" connect="1" arrows="1" fold="1" pageScale="1" pageWidth="827" pageHeight="1169" math="1" shadow="0">
      <root>
        <mxCell id="0" />
        <mxCell id="1" parent="0" />
        <mxCell id="ooGf7dzvASG-FYTZT6tG-165" value="ControlNet" style="rounded=1;whiteSpace=wrap;html=1;fillColor=none;strokeColor=#6c8ebf;strokeWidth=4;dashed=1;dashPattern=1 1;arcSize=4;align=left;verticalAlign=top;fontSize=50;fontFamily=Times New Roman;spacingLeft=15;" vertex="1" parent="1">
          <mxGeometry x="960" y="-140" width="820" height="1240" as="geometry" />
        </mxCell>
        <mxCell id="ooGf7dzvASG-FYTZT6tG-140" value="&lt;font style=&quot;font-size: 30px;&quot; face=&quot;Times New Roman&quot;&gt;zero convolution&lt;br&gt;&lt;/font&gt;" style="rounded=1;whiteSpace=wrap;html=1;fillColor=#fff2cc;strokeColor=#d6b656;strokeWidth=3;" vertex="1" parent="1">
          <mxGeometry x="1228.45" y="600" width="333.12" height="30" as="geometry" />
        </mxCell>
        <mxCell id="ooGf7dzvASG-FYTZT6tG-50" style="edgeStyle=orthogonalEdgeStyle;rounded=0;orthogonalLoop=1;jettySize=auto;html=1;exitX=0;exitY=0.75;exitDx=0;exitDy=0;entryX=1;entryY=0.5;entryDx=0;entryDy=0;strokeWidth=6;strokeColor=#E6E6E6;endArrow=none;endFill=0;" edge="1" parent="1" source="ooGf7dzvASG-FYTZT6tG-11" target="ooGf7dzvASG-FYTZT6tG-3">
          <mxGeometry relative="1" as="geometry">
            <mxPoint x="319" y="113" as="sourcePoint" />
            <mxPoint x="169" y="400" as="targetPoint" />
            <Array as="points">
              <mxPoint x="219" y="218" />
              <mxPoint x="219" y="390" />
            </Array>
          </mxGeometry>
        </mxCell>
        <mxCell id="ooGf7dzvASG-FYTZT6tG-29" style="edgeStyle=orthogonalEdgeStyle;rounded=0;orthogonalLoop=1;jettySize=auto;html=1;exitX=1;exitY=0.5;exitDx=0;exitDy=0;entryX=0;entryY=0.5;entryDx=0;entryDy=0;endArrow=none;endFill=0;strokeWidth=3;strokeColor=#B3B3B3;" edge="1" parent="1" source="ooGf7dzvASG-FYTZT6tG-1" target="ooGf7dzvASG-FYTZT6tG-9">
          <mxGeometry relative="1" as="geometry" />
        </mxCell>
        <mxCell id="ooGf7dzvASG-FYTZT6tG-1" value="&lt;font style=&quot;font-size: 30px;&quot; face=&quot;Times New Roman&quot;&gt;Text Encoder&lt;/font&gt;" style="rounded=1;whiteSpace=wrap;html=1;fillColor=#f5f5f5;fontColor=#333333;strokeColor=#B3B3B3;strokeWidth=3;" vertex="1" parent="1">
          <mxGeometry x="-61" y="50" width="220" height="60" as="geometry" />
        </mxCell>
        <mxCell id="ooGf7dzvASG-FYTZT6tG-2" value="" style="sketch=0;aspect=fixed;pointerEvents=1;shadow=0;dashed=0;html=1;strokeColor=none;labelPosition=center;verticalLabelPosition=bottom;verticalAlign=top;align=center;fillColor=#00188D;shape=mxgraph.mscae.enterprise.lock" vertex="1" parent="1">
          <mxGeometry x="139" y="20" width="39" height="50" as="geometry" />
        </mxCell>
        <mxCell id="ooGf7dzvASG-FYTZT6tG-3" value="&lt;font style=&quot;font-size: 30px;&quot; face=&quot;Times New Roman&quot;&gt;Time Encoder&lt;/font&gt;" style="rounded=1;whiteSpace=wrap;html=1;fillColor=#f5f5f5;fontColor=#333333;strokeColor=#B3B3B3;strokeWidth=3;" vertex="1" parent="1">
          <mxGeometry x="-61" y="360" width="220" height="60" as="geometry" />
        </mxCell>
        <mxCell id="ooGf7dzvASG-FYTZT6tG-4" value="" style="sketch=0;aspect=fixed;pointerEvents=1;shadow=0;dashed=0;html=1;strokeColor=none;labelPosition=center;verticalLabelPosition=bottom;verticalAlign=top;align=center;fillColor=#00188D;shape=mxgraph.mscae.enterprise.lock" vertex="1" parent="1">
          <mxGeometry x="139" y="330" width="39" height="50" as="geometry" />
        </mxCell>
        <mxCell id="ooGf7dzvASG-FYTZT6tG-6" style="edgeStyle=orthogonalEdgeStyle;rounded=0;orthogonalLoop=1;jettySize=auto;html=1;strokeColor=#B3B3B3;strokeWidth=3;" edge="1" parent="1" source="ooGf7dzvASG-FYTZT6tG-5" target="ooGf7dzvASG-FYTZT6tG-3">
          <mxGeometry relative="1" as="geometry" />
        </mxCell>
        <mxCell id="ooGf7dzvASG-FYTZT6tG-5" value="&lt;font style=&quot;font-size: 30px;&quot; face=&quot;Times New Roman&quot;&gt;Time&lt;/font&gt;" style="text;html=1;strokeColor=none;fillColor=none;align=center;verticalAlign=middle;whiteSpace=wrap;rounded=0;" vertex="1" parent="1">
          <mxGeometry x="4" y="270" width="90" height="50" as="geometry" />
        </mxCell>
        <mxCell id="ooGf7dzvASG-FYTZT6tG-7" value="&lt;font style=&quot;font-size: 30px;&quot; face=&quot;Times New Roman&quot;&gt;Prompt&lt;/font&gt;" style="text;html=1;strokeColor=none;fillColor=none;align=center;verticalAlign=middle;whiteSpace=wrap;rounded=0;" vertex="1" parent="1">
          <mxGeometry x="-6" y="-60" width="110" height="50" as="geometry" />
        </mxCell>
        <mxCell id="ooGf7dzvASG-FYTZT6tG-8" style="edgeStyle=orthogonalEdgeStyle;rounded=0;orthogonalLoop=1;jettySize=auto;html=1;entryX=0.5;entryY=0;entryDx=0;entryDy=0;strokeWidth=3;strokeColor=#B3B3B3;" edge="1" parent="1" source="ooGf7dzvASG-FYTZT6tG-7" target="ooGf7dzvASG-FYTZT6tG-1">
          <mxGeometry relative="1" as="geometry">
            <mxPoint x="59" y="320" as="sourcePoint" />
            <mxPoint x="59" y="370" as="targetPoint" />
          </mxGeometry>
        </mxCell>
        <mxCell id="ooGf7dzvASG-FYTZT6tG-38" style="edgeStyle=orthogonalEdgeStyle;rounded=0;orthogonalLoop=1;jettySize=auto;html=1;exitX=0.5;exitY=1;exitDx=0;exitDy=0;entryX=0.5;entryY=0;entryDx=0;entryDy=0;endArrow=none;endFill=0;strokeColor=#B3B3B3;strokeWidth=3;" edge="1" parent="1" source="ooGf7dzvASG-FYTZT6tG-9" target="ooGf7dzvASG-FYTZT6tG-11">
          <mxGeometry relative="1" as="geometry" />
        </mxCell>
        <mxCell id="ooGf7dzvASG-FYTZT6tG-49" style="edgeStyle=orthogonalEdgeStyle;rounded=0;orthogonalLoop=1;jettySize=auto;html=1;exitX=0;exitY=0.75;exitDx=0;exitDy=0;entryX=1;entryY=0.5;entryDx=0;entryDy=0;strokeWidth=6;strokeColor=#E6E6E6;endArrow=none;endFill=0;" edge="1" parent="1" source="ooGf7dzvASG-FYTZT6tG-9" target="ooGf7dzvASG-FYTZT6tG-3">
          <mxGeometry relative="1" as="geometry">
            <Array as="points">
              <mxPoint x="219" y="103" />
              <mxPoint x="219" y="390" />
            </Array>
          </mxGeometry>
        </mxCell>
        <mxCell id="ooGf7dzvASG-FYTZT6tG-28" value="&lt;font style=&quot;font-size: 30px;&quot; face=&quot;Times New Roman&quot;&gt;Output&lt;/font&gt;" style="text;html=1;strokeColor=none;fillColor=none;align=center;verticalAlign=middle;whiteSpace=wrap;rounded=0;" vertex="1" parent="1">
          <mxGeometry x="519.01" y="1119" width="90" height="50" as="geometry" />
        </mxCell>
        <mxCell id="ooGf7dzvASG-FYTZT6tG-30" style="edgeStyle=orthogonalEdgeStyle;rounded=0;orthogonalLoop=1;jettySize=auto;html=1;exitX=1;exitY=0.5;exitDx=0;exitDy=0;entryX=0;entryY=0.5;entryDx=0;entryDy=0;endArrow=none;endFill=0;strokeWidth=3;strokeColor=#B3B3B3;" edge="1" parent="1" source="ooGf7dzvASG-FYTZT6tG-1" target="ooGf7dzvASG-FYTZT6tG-11">
          <mxGeometry relative="1" as="geometry">
            <mxPoint x="169" y="90" as="sourcePoint" />
            <mxPoint x="319" y="90" as="targetPoint" />
            <Array as="points">
              <mxPoint x="239" y="80" />
              <mxPoint x="239" y="195" />
            </Array>
          </mxGeometry>
        </mxCell>
        <mxCell id="ooGf7dzvASG-FYTZT6tG-31" style="edgeStyle=orthogonalEdgeStyle;rounded=0;orthogonalLoop=1;jettySize=auto;html=1;exitX=1;exitY=0.5;exitDx=0;exitDy=0;entryX=0;entryY=0.5;entryDx=0;entryDy=0;endArrow=none;endFill=0;strokeWidth=3;strokeColor=#B3B3B3;" edge="1" parent="1" source="ooGf7dzvASG-FYTZT6tG-1" target="ooGf7dzvASG-FYTZT6tG-13">
          <mxGeometry relative="1" as="geometry">
            <mxPoint x="179" y="100" as="sourcePoint" />
            <mxPoint x="329" y="100" as="targetPoint" />
            <Array as="points">
              <mxPoint x="239" y="80" />
              <mxPoint x="239" y="315" />
            </Array>
          </mxGeometry>
        </mxCell>
        <mxCell id="ooGf7dzvASG-FYTZT6tG-32" style="edgeStyle=orthogonalEdgeStyle;rounded=0;orthogonalLoop=1;jettySize=auto;html=1;exitX=1;exitY=0.5;exitDx=0;exitDy=0;entryX=0;entryY=0.5;entryDx=0;entryDy=0;endArrow=none;endFill=0;strokeWidth=3;strokeColor=#B3B3B3;" edge="1" parent="1" source="ooGf7dzvASG-FYTZT6tG-1" target="ooGf7dzvASG-FYTZT6tG-15">
          <mxGeometry relative="1" as="geometry">
            <mxPoint x="189" y="110" as="sourcePoint" />
            <mxPoint x="339" y="110" as="targetPoint" />
            <Array as="points">
              <mxPoint x="239" y="80" />
              <mxPoint x="239" y="435" />
            </Array>
          </mxGeometry>
        </mxCell>
        <mxCell id="ooGf7dzvASG-FYTZT6tG-33" style="edgeStyle=orthogonalEdgeStyle;rounded=0;orthogonalLoop=1;jettySize=auto;html=1;exitX=1;exitY=0.5;exitDx=0;exitDy=0;entryX=0;entryY=0.5;entryDx=0;entryDy=0;endArrow=none;endFill=0;strokeWidth=3;strokeColor=#B3B3B3;" edge="1" parent="1" source="ooGf7dzvASG-FYTZT6tG-1" target="ooGf7dzvASG-FYTZT6tG-17">
          <mxGeometry relative="1" as="geometry">
            <mxPoint x="169" y="90" as="sourcePoint" />
            <mxPoint x="383" y="445" as="targetPoint" />
            <Array as="points">
              <mxPoint x="239" y="80" />
              <mxPoint x="239" y="550" />
              <mxPoint x="396" y="550" />
            </Array>
          </mxGeometry>
        </mxCell>
        <mxCell id="ooGf7dzvASG-FYTZT6tG-34" style="edgeStyle=orthogonalEdgeStyle;rounded=0;orthogonalLoop=1;jettySize=auto;html=1;entryX=0;entryY=0.5;entryDx=0;entryDy=0;endArrow=none;endFill=0;strokeWidth=3;strokeColor=#B3B3B3;exitX=1;exitY=0.5;exitDx=0;exitDy=0;" edge="1" parent="1" source="ooGf7dzvASG-FYTZT6tG-1" target="ooGf7dzvASG-FYTZT6tG-19">
          <mxGeometry relative="1" as="geometry">
            <mxPoint x="139" y="180" as="sourcePoint" />
            <mxPoint x="393" y="455" as="targetPoint" />
            <Array as="points">
              <mxPoint x="239" y="80" />
              <mxPoint x="239" y="670" />
              <mxPoint x="373" y="670" />
            </Array>
          </mxGeometry>
        </mxCell>
        <mxCell id="ooGf7dzvASG-FYTZT6tG-35" style="edgeStyle=orthogonalEdgeStyle;rounded=0;orthogonalLoop=1;jettySize=auto;html=1;exitX=1;exitY=0.5;exitDx=0;exitDy=0;entryX=0;entryY=0.5;entryDx=0;entryDy=0;endArrow=none;endFill=0;strokeWidth=3;strokeColor=#B3B3B3;" edge="1" parent="1" source="ooGf7dzvASG-FYTZT6tG-1" target="ooGf7dzvASG-FYTZT6tG-21">
          <mxGeometry relative="1" as="geometry">
            <mxPoint x="189" y="110" as="sourcePoint" />
            <mxPoint x="403" y="465" as="targetPoint" />
            <Array as="points">
              <mxPoint x="239" y="80" />
              <mxPoint x="239" y="795" />
            </Array>
          </mxGeometry>
        </mxCell>
        <mxCell id="ooGf7dzvASG-FYTZT6tG-36" style="edgeStyle=orthogonalEdgeStyle;rounded=0;orthogonalLoop=1;jettySize=auto;html=1;exitX=1;exitY=0.5;exitDx=0;exitDy=0;entryX=0;entryY=0.5;entryDx=0;entryDy=0;endArrow=none;endFill=0;strokeWidth=3;strokeColor=#B3B3B3;" edge="1" parent="1" source="ooGf7dzvASG-FYTZT6tG-1" target="ooGf7dzvASG-FYTZT6tG-22">
          <mxGeometry relative="1" as="geometry">
            <mxPoint x="199" y="120" as="sourcePoint" />
            <mxPoint x="413" y="475" as="targetPoint" />
            <Array as="points">
              <mxPoint x="239" y="80" />
              <mxPoint x="239" y="915" />
            </Array>
          </mxGeometry>
        </mxCell>
        <mxCell id="ooGf7dzvASG-FYTZT6tG-39" style="edgeStyle=orthogonalEdgeStyle;rounded=0;orthogonalLoop=1;jettySize=auto;html=1;exitX=0.5;exitY=0;exitDx=0;exitDy=0;entryX=0.5;entryY=1;entryDx=0;entryDy=0;endArrow=none;endFill=0;strokeColor=#B3B3B3;strokeWidth=3;" edge="1" parent="1" source="ooGf7dzvASG-FYTZT6tG-13" target="ooGf7dzvASG-FYTZT6tG-11">
          <mxGeometry relative="1" as="geometry">
            <mxPoint x="574" y="135" as="sourcePoint" />
            <mxPoint x="574" y="160" as="targetPoint" />
          </mxGeometry>
        </mxCell>
        <mxCell id="ooGf7dzvASG-FYTZT6tG-40" style="edgeStyle=orthogonalEdgeStyle;rounded=0;orthogonalLoop=1;jettySize=auto;html=1;exitX=0.5;exitY=0;exitDx=0;exitDy=0;entryX=0.5;entryY=1;entryDx=0;entryDy=0;endArrow=none;endFill=0;strokeColor=#B3B3B3;strokeWidth=3;" edge="1" parent="1" source="ooGf7dzvASG-FYTZT6tG-15" target="ooGf7dzvASG-FYTZT6tG-13">
          <mxGeometry relative="1" as="geometry">
            <mxPoint x="574" y="280" as="sourcePoint" />
            <mxPoint x="574" y="250" as="targetPoint" />
          </mxGeometry>
        </mxCell>
        <mxCell id="ooGf7dzvASG-FYTZT6tG-41" style="edgeStyle=orthogonalEdgeStyle;rounded=0;orthogonalLoop=1;jettySize=auto;html=1;exitX=0.5;exitY=0;exitDx=0;exitDy=0;entryX=0.5;entryY=1;entryDx=0;entryDy=0;endArrow=none;endFill=0;strokeColor=#B3B3B3;strokeWidth=3;" edge="1" parent="1" source="ooGf7dzvASG-FYTZT6tG-17" target="ooGf7dzvASG-FYTZT6tG-15">
          <mxGeometry relative="1" as="geometry">
            <mxPoint x="574" y="400" as="sourcePoint" />
            <mxPoint x="574" y="370" as="targetPoint" />
          </mxGeometry>
        </mxCell>
        <mxCell id="ooGf7dzvASG-FYTZT6tG-42" style="edgeStyle=orthogonalEdgeStyle;rounded=0;orthogonalLoop=1;jettySize=auto;html=1;exitX=0.5;exitY=0;exitDx=0;exitDy=0;entryX=0.5;entryY=1;entryDx=0;entryDy=0;endArrow=none;endFill=0;strokeColor=#B3B3B3;strokeWidth=3;" edge="1" parent="1" source="ooGf7dzvASG-FYTZT6tG-19" target="ooGf7dzvASG-FYTZT6tG-17">
          <mxGeometry relative="1" as="geometry">
            <mxPoint x="574" y="520" as="sourcePoint" />
            <mxPoint x="574" y="490" as="targetPoint" />
          </mxGeometry>
        </mxCell>
        <mxCell id="ooGf7dzvASG-FYTZT6tG-43" style="edgeStyle=orthogonalEdgeStyle;rounded=0;orthogonalLoop=1;jettySize=auto;html=1;exitX=0.5;exitY=0;exitDx=0;exitDy=0;entryX=0.5;entryY=1;entryDx=0;entryDy=0;endArrow=none;endFill=0;strokeColor=#B3B3B3;strokeWidth=3;" edge="1" parent="1" source="ooGf7dzvASG-FYTZT6tG-21" target="ooGf7dzvASG-FYTZT6tG-19">
          <mxGeometry relative="1" as="geometry">
            <mxPoint x="574" y="640" as="sourcePoint" />
            <mxPoint x="574" y="610" as="targetPoint" />
          </mxGeometry>
        </mxCell>
        <mxCell id="ooGf7dzvASG-FYTZT6tG-44" style="edgeStyle=orthogonalEdgeStyle;rounded=0;orthogonalLoop=1;jettySize=auto;html=1;exitX=0.5;exitY=0;exitDx=0;exitDy=0;entryX=0.5;entryY=1;entryDx=0;entryDy=0;endArrow=none;endFill=0;strokeColor=#B3B3B3;strokeWidth=3;" edge="1" parent="1" source="ooGf7dzvASG-FYTZT6tG-22" target="ooGf7dzvASG-FYTZT6tG-21">
          <mxGeometry relative="1" as="geometry">
            <mxPoint x="574" y="760" as="sourcePoint" />
            <mxPoint x="574" y="730" as="targetPoint" />
          </mxGeometry>
        </mxCell>
        <mxCell id="ooGf7dzvASG-FYTZT6tG-45" style="edgeStyle=orthogonalEdgeStyle;rounded=0;orthogonalLoop=1;jettySize=auto;html=1;exitX=0.5;exitY=0;exitDx=0;exitDy=0;entryX=0.5;entryY=1;entryDx=0;entryDy=0;endArrow=none;endFill=0;strokeColor=#B3B3B3;strokeWidth=3;" edge="1" parent="1" source="ooGf7dzvASG-FYTZT6tG-23" target="ooGf7dzvASG-FYTZT6tG-22">
          <mxGeometry relative="1" as="geometry">
            <mxPoint x="574" y="880" as="sourcePoint" />
            <mxPoint x="574" y="850" as="targetPoint" />
          </mxGeometry>
        </mxCell>
        <mxCell id="ooGf7dzvASG-FYTZT6tG-46" style="edgeStyle=orthogonalEdgeStyle;rounded=0;orthogonalLoop=1;jettySize=auto;html=1;exitX=0.5;exitY=0;exitDx=0;exitDy=0;entryX=0.5;entryY=1;entryDx=0;entryDy=0;endArrow=none;endFill=0;strokeColor=#B3B3B3;strokeWidth=3;startArrow=classicThin;startFill=1;" edge="1" parent="1" source="ooGf7dzvASG-FYTZT6tG-28" target="ooGf7dzvASG-FYTZT6tG-23">
          <mxGeometry relative="1" as="geometry">
            <mxPoint x="574" y="1000" as="sourcePoint" />
            <mxPoint x="574" y="970" as="targetPoint" />
          </mxGeometry>
        </mxCell>
        <mxCell id="ooGf7dzvASG-FYTZT6tG-48" style="edgeStyle=orthogonalEdgeStyle;rounded=0;orthogonalLoop=1;jettySize=auto;html=1;exitX=0.5;exitY=1;exitDx=0;exitDy=0;entryX=0.5;entryY=0;entryDx=0;entryDy=0;strokeColor=#B3B3B3;strokeWidth=3;" edge="1" parent="1" source="ooGf7dzvASG-FYTZT6tG-47" target="ooGf7dzvASG-FYTZT6tG-9">
          <mxGeometry relative="1" as="geometry" />
        </mxCell>
        <mxCell id="ooGf7dzvASG-FYTZT6tG-151" style="edgeStyle=orthogonalEdgeStyle;rounded=0;orthogonalLoop=1;jettySize=auto;html=1;exitX=1;exitY=0.5;exitDx=0;exitDy=0;entryX=0;entryY=0.5;entryDx=0;entryDy=0;entryPerimeter=0;fillColor=#dae8fc;strokeColor=#6c8ebf;strokeWidth=3;" edge="1" parent="1" source="ooGf7dzvASG-FYTZT6tG-47" target="ooGf7dzvASG-FYTZT6tG-149">
          <mxGeometry relative="1" as="geometry" />
        </mxCell>
        <mxCell id="ooGf7dzvASG-FYTZT6tG-47" value="&lt;font style=&quot;font-size: 30px;&quot; face=&quot;Times New Roman&quot;&gt;Input&lt;/font&gt;" style="text;html=1;strokeColor=none;fillColor=none;align=center;verticalAlign=middle;whiteSpace=wrap;rounded=0;" vertex="1" parent="1">
          <mxGeometry x="509" y="-60" width="110" height="50" as="geometry" />
        </mxCell>
        <mxCell id="ooGf7dzvASG-FYTZT6tG-51" style="edgeStyle=orthogonalEdgeStyle;rounded=0;orthogonalLoop=1;jettySize=auto;html=1;exitX=0;exitY=0.75;exitDx=0;exitDy=0;entryX=1;entryY=0.5;entryDx=0;entryDy=0;strokeWidth=6;strokeColor=#E6E6E6;endArrow=none;endFill=0;" edge="1" parent="1" source="ooGf7dzvASG-FYTZT6tG-13" target="ooGf7dzvASG-FYTZT6tG-3">
          <mxGeometry relative="1" as="geometry">
            <mxPoint x="334" y="228" as="sourcePoint" />
            <mxPoint x="169" y="400" as="targetPoint" />
            <Array as="points">
              <mxPoint x="219" y="338" />
              <mxPoint x="219" y="390" />
            </Array>
          </mxGeometry>
        </mxCell>
        <mxCell id="ooGf7dzvASG-FYTZT6tG-52" style="edgeStyle=orthogonalEdgeStyle;rounded=0;orthogonalLoop=1;jettySize=auto;html=1;exitX=0;exitY=0.75;exitDx=0;exitDy=0;entryX=1;entryY=0.5;entryDx=0;entryDy=0;strokeWidth=6;strokeColor=#E6E6E6;endArrow=none;endFill=0;" edge="1" parent="1" source="ooGf7dzvASG-FYTZT6tG-15" target="ooGf7dzvASG-FYTZT6tG-3">
          <mxGeometry relative="1" as="geometry">
            <mxPoint x="357" y="348" as="sourcePoint" />
            <mxPoint x="169" y="400" as="targetPoint" />
            <Array as="points">
              <mxPoint x="219" y="458" />
              <mxPoint x="219" y="390" />
            </Array>
          </mxGeometry>
        </mxCell>
        <mxCell id="ooGf7dzvASG-FYTZT6tG-53" style="edgeStyle=orthogonalEdgeStyle;rounded=0;orthogonalLoop=1;jettySize=auto;html=1;exitX=0;exitY=0.75;exitDx=0;exitDy=0;entryX=1;entryY=0.5;entryDx=0;entryDy=0;strokeWidth=6;strokeColor=#E6E6E6;endArrow=none;endFill=0;" edge="1" parent="1" source="ooGf7dzvASG-FYTZT6tG-17" target="ooGf7dzvASG-FYTZT6tG-3">
          <mxGeometry relative="1" as="geometry">
            <mxPoint x="367" y="358" as="sourcePoint" />
            <mxPoint x="179" y="410" as="targetPoint" />
            <Array as="points">
              <mxPoint x="219" y="578" />
              <mxPoint x="219" y="390" />
            </Array>
          </mxGeometry>
        </mxCell>
        <mxCell id="ooGf7dzvASG-FYTZT6tG-54" style="edgeStyle=orthogonalEdgeStyle;rounded=0;orthogonalLoop=1;jettySize=auto;html=1;exitX=0;exitY=0.75;exitDx=0;exitDy=0;entryX=1;entryY=0.5;entryDx=0;entryDy=0;strokeWidth=6;strokeColor=#E6E6E6;endArrow=none;endFill=0;" edge="1" parent="1" source="ooGf7dzvASG-FYTZT6tG-19" target="ooGf7dzvASG-FYTZT6tG-3">
          <mxGeometry relative="1" as="geometry">
            <mxPoint x="377" y="368" as="sourcePoint" />
            <mxPoint x="189" y="420" as="targetPoint" />
            <Array as="points">
              <mxPoint x="219" y="698" />
              <mxPoint x="219" y="390" />
            </Array>
          </mxGeometry>
        </mxCell>
        <mxCell id="ooGf7dzvASG-FYTZT6tG-55" style="edgeStyle=orthogonalEdgeStyle;rounded=0;orthogonalLoop=1;jettySize=auto;html=1;exitX=0;exitY=0.75;exitDx=0;exitDy=0;entryX=1;entryY=0.5;entryDx=0;entryDy=0;strokeWidth=6;strokeColor=#E6E6E6;endArrow=none;endFill=0;" edge="1" parent="1" source="ooGf7dzvASG-FYTZT6tG-21" target="ooGf7dzvASG-FYTZT6tG-3">
          <mxGeometry relative="1" as="geometry">
            <mxPoint x="387" y="378" as="sourcePoint" />
            <mxPoint x="199" y="430" as="targetPoint" />
            <Array as="points">
              <mxPoint x="219" y="818" />
              <mxPoint x="219" y="390" />
            </Array>
          </mxGeometry>
        </mxCell>
        <mxCell id="ooGf7dzvASG-FYTZT6tG-56" style="edgeStyle=orthogonalEdgeStyle;rounded=0;orthogonalLoop=1;jettySize=auto;html=1;exitX=0;exitY=0.75;exitDx=0;exitDy=0;entryX=1;entryY=0.5;entryDx=0;entryDy=0;strokeWidth=6;strokeColor=#E6E6E6;endArrow=none;endFill=0;" edge="1" parent="1" source="ooGf7dzvASG-FYTZT6tG-22" target="ooGf7dzvASG-FYTZT6tG-3">
          <mxGeometry relative="1" as="geometry">
            <mxPoint x="357" y="828" as="sourcePoint" />
            <mxPoint x="169" y="400" as="targetPoint" />
            <Array as="points">
              <mxPoint x="219" y="938" />
              <mxPoint x="219" y="390" />
            </Array>
          </mxGeometry>
        </mxCell>
        <mxCell id="ooGf7dzvASG-FYTZT6tG-57" style="edgeStyle=orthogonalEdgeStyle;rounded=0;orthogonalLoop=1;jettySize=auto;html=1;exitX=0;exitY=0.75;exitDx=0;exitDy=0;entryX=1;entryY=0.5;entryDx=0;entryDy=0;strokeWidth=6;strokeColor=#E6E6E6;endArrow=none;endFill=0;" edge="1" parent="1" source="ooGf7dzvASG-FYTZT6tG-23" target="ooGf7dzvASG-FYTZT6tG-3">
          <mxGeometry relative="1" as="geometry">
            <mxPoint x="367" y="838" as="sourcePoint" />
            <mxPoint x="179" y="410" as="targetPoint" />
            <Array as="points">
              <mxPoint x="219" y="1058" />
              <mxPoint x="219" y="390" />
            </Array>
          </mxGeometry>
        </mxCell>
        <mxCell id="ooGf7dzvASG-FYTZT6tG-37" style="edgeStyle=orthogonalEdgeStyle;rounded=0;orthogonalLoop=1;jettySize=auto;html=1;exitX=1;exitY=0.5;exitDx=0;exitDy=0;entryX=0;entryY=0.5;entryDx=0;entryDy=0;endArrow=none;endFill=0;strokeWidth=3;strokeColor=#B3B3B3;" edge="1" parent="1" source="ooGf7dzvASG-FYTZT6tG-1" target="ooGf7dzvASG-FYTZT6tG-23">
          <mxGeometry relative="1" as="geometry">
            <mxPoint x="209" y="130" as="sourcePoint" />
            <mxPoint x="423" y="485" as="targetPoint" />
            <Array as="points">
              <mxPoint x="239" y="80" />
              <mxPoint x="239" y="1035" />
            </Array>
          </mxGeometry>
        </mxCell>
        <mxCell id="ooGf7dzvASG-FYTZT6tG-69" style="edgeStyle=orthogonalEdgeStyle;rounded=0;orthogonalLoop=1;jettySize=auto;html=1;exitX=0.5;exitY=1;exitDx=0;exitDy=0;entryX=0.5;entryY=0;entryDx=0;entryDy=0;strokeWidth=3;strokeColor=#E6E6E6;endArrow=none;endFill=0;" edge="1" parent="1" source="ooGf7dzvASG-FYTZT6tG-58" target="ooGf7dzvASG-FYTZT6tG-68">
          <mxGeometry relative="1" as="geometry" />
        </mxCell>
        <mxCell id="ooGf7dzvASG-FYTZT6tG-58" value="&lt;font style=&quot;font-size: 30px;&quot; face=&quot;Times New Roman&quot;&gt;$$\times 3$$&lt;/font&gt;" style="text;html=1;strokeColor=none;fillColor=none;align=center;verticalAlign=middle;whiteSpace=wrap;rounded=0;" vertex="1" parent="1">
          <mxGeometry x="839" y="50" width="89.99" height="50" as="geometry" />
        </mxCell>
        <mxCell id="ooGf7dzvASG-FYTZT6tG-70" style="edgeStyle=orthogonalEdgeStyle;rounded=0;orthogonalLoop=1;jettySize=auto;html=1;exitX=0.5;exitY=1;exitDx=0;exitDy=0;strokeWidth=3;strokeColor=#E6E6E6;endArrow=none;endFill=0;" edge="1" parent="1" source="ooGf7dzvASG-FYTZT6tG-62" target="ooGf7dzvASG-FYTZT6tG-67">
          <mxGeometry relative="1" as="geometry" />
        </mxCell>
        <mxCell id="ooGf7dzvASG-FYTZT6tG-62" value="&lt;font style=&quot;font-size: 30px;&quot; face=&quot;Times New Roman&quot;&gt;$$\times 3$$&lt;/font&gt;" style="text;html=1;strokeColor=none;fillColor=none;align=center;verticalAlign=middle;whiteSpace=wrap;rounded=0;" vertex="1" parent="1">
          <mxGeometry x="804" y="170" width="89.99" height="50" as="geometry" />
        </mxCell>
        <mxCell id="ooGf7dzvASG-FYTZT6tG-63" value="&lt;font style=&quot;font-size: 30px;&quot; face=&quot;Times New Roman&quot;&gt;$$\times 3$$&lt;/font&gt;" style="text;html=1;strokeColor=none;fillColor=none;align=center;verticalAlign=middle;whiteSpace=wrap;rounded=0;" vertex="1" parent="1">
          <mxGeometry x="781.5" y="290" width="67.5" height="50" as="geometry" />
        </mxCell>
        <mxCell id="ooGf7dzvASG-FYTZT6tG-64" value="&lt;font style=&quot;font-size: 30px;&quot; face=&quot;Times New Roman&quot;&gt;$$\times 3$$&lt;/font&gt;" style="text;html=1;strokeColor=none;fillColor=none;align=center;verticalAlign=middle;whiteSpace=wrap;rounded=0;" vertex="1" parent="1">
          <mxGeometry x="755.25" y="410" width="53.75" height="50" as="geometry" />
        </mxCell>
        <mxCell id="ooGf7dzvASG-FYTZT6tG-65" value="&lt;font style=&quot;font-size: 30px;&quot; face=&quot;Times New Roman&quot;&gt;$$\times 3$$&lt;/font&gt;" style="text;html=1;strokeColor=none;fillColor=none;align=center;verticalAlign=middle;whiteSpace=wrap;rounded=0;" vertex="1" parent="1">
          <mxGeometry x="755.25" y="650" width="53.75" height="50" as="geometry" />
        </mxCell>
        <mxCell id="ooGf7dzvASG-FYTZT6tG-67" value="&lt;font style=&quot;font-size: 30px;&quot; face=&quot;Times New Roman&quot;&gt;$$\times 3$$&lt;/font&gt;" style="text;html=1;strokeColor=none;fillColor=none;align=center;verticalAlign=middle;whiteSpace=wrap;rounded=0;" vertex="1" parent="1">
          <mxGeometry x="821.5" y="890" width="55" height="50" as="geometry" />
        </mxCell>
        <mxCell id="ooGf7dzvASG-FYTZT6tG-68" value="&lt;font style=&quot;font-size: 30px;&quot; face=&quot;Times New Roman&quot;&gt;$$\times 3$$&lt;/font&gt;" style="text;html=1;strokeColor=none;fillColor=none;align=center;verticalAlign=middle;whiteSpace=wrap;rounded=0;" vertex="1" parent="1">
          <mxGeometry x="854" y="1010" width="60" height="50" as="geometry" />
        </mxCell>
        <mxCell id="ooGf7dzvASG-FYTZT6tG-71" value="&lt;font style=&quot;font-size: 30px;&quot; face=&quot;Times New Roman&quot;&gt;$$\times 3$$&lt;/font&gt;" style="text;html=1;strokeColor=none;fillColor=none;align=center;verticalAlign=middle;whiteSpace=wrap;rounded=0;" vertex="1" parent="1">
          <mxGeometry x="781.5" y="770" width="67.5" height="50" as="geometry" />
        </mxCell>
        <mxCell id="ooGf7dzvASG-FYTZT6tG-72" style="edgeStyle=orthogonalEdgeStyle;rounded=0;orthogonalLoop=1;jettySize=auto;html=1;exitX=0.5;exitY=1;exitDx=0;exitDy=0;strokeWidth=3;strokeColor=#E6E6E6;endArrow=none;endFill=0;entryX=0.5;entryY=0;entryDx=0;entryDy=0;" edge="1" parent="1" source="ooGf7dzvASG-FYTZT6tG-63" target="ooGf7dzvASG-FYTZT6tG-71">
          <mxGeometry relative="1" as="geometry">
            <mxPoint x="859" y="230" as="sourcePoint" />
            <mxPoint x="859" y="900" as="targetPoint" />
          </mxGeometry>
        </mxCell>
        <mxCell id="ooGf7dzvASG-FYTZT6tG-73" style="edgeStyle=orthogonalEdgeStyle;rounded=0;orthogonalLoop=1;jettySize=auto;html=1;exitX=0.5;exitY=1;exitDx=0;exitDy=0;strokeWidth=3;strokeColor=#E6E6E6;endArrow=none;endFill=0;entryX=0.5;entryY=0;entryDx=0;entryDy=0;" edge="1" parent="1" source="ooGf7dzvASG-FYTZT6tG-64" target="ooGf7dzvASG-FYTZT6tG-65">
          <mxGeometry relative="1" as="geometry">
            <mxPoint x="869" y="240" as="sourcePoint" />
            <mxPoint x="869" y="910" as="targetPoint" />
          </mxGeometry>
        </mxCell>
        <mxCell id="ooGf7dzvASG-FYTZT6tG-99" style="edgeStyle=orthogonalEdgeStyle;rounded=0;orthogonalLoop=1;jettySize=auto;html=1;exitX=0.5;exitY=1;exitDx=0;exitDy=0;entryX=0.5;entryY=0;entryDx=0;entryDy=0;endArrow=none;endFill=0;strokeColor=#6c8ebf;strokeWidth=3;fillColor=#dae8fc;" edge="1" parent="1" source="ooGf7dzvASG-FYTZT6tG-100" target="ooGf7dzvASG-FYTZT6tG-102">
          <mxGeometry relative="1" as="geometry" />
        </mxCell>
        <mxCell id="ooGf7dzvASG-FYTZT6tG-142" style="edgeStyle=orthogonalEdgeStyle;rounded=0;orthogonalLoop=1;jettySize=auto;html=1;exitX=0;exitY=0.5;exitDx=0;exitDy=0;strokeWidth=3;fillColor=#dae8fc;strokeColor=#6c8ebf;" edge="1" parent="1" source="ooGf7dzvASG-FYTZT6tG-110" target="ooGf7dzvASG-FYTZT6tG-65">
          <mxGeometry relative="1" as="geometry" />
        </mxCell>
        <mxCell id="ooGf7dzvASG-FYTZT6tG-110" value="&lt;font style=&quot;font-size: 30px;&quot; face=&quot;Times New Roman&quot;&gt;zero convolution&lt;br&gt;&lt;/font&gt;" style="rounded=1;whiteSpace=wrap;html=1;fillColor=#fff2cc;strokeColor=#d6b656;strokeWidth=3;" vertex="1" parent="1">
          <mxGeometry x="1203.75" y="650" width="382.5" height="50" as="geometry" />
        </mxCell>
        <mxCell id="ooGf7dzvASG-FYTZT6tG-143" style="edgeStyle=orthogonalEdgeStyle;rounded=0;orthogonalLoop=1;jettySize=auto;html=1;exitX=0;exitY=0.5;exitDx=0;exitDy=0;strokeWidth=3;fillColor=#dae8fc;strokeColor=#6c8ebf;" edge="1" parent="1" source="ooGf7dzvASG-FYTZT6tG-111" target="ooGf7dzvASG-FYTZT6tG-71">
          <mxGeometry relative="1" as="geometry" />
        </mxCell>
        <mxCell id="ooGf7dzvASG-FYTZT6tG-111" value="&lt;font style=&quot;font-size: 30px;&quot; face=&quot;Times New Roman&quot;&gt;zero convolution&lt;br&gt;&lt;/font&gt;" style="rounded=1;whiteSpace=wrap;html=1;fillColor=#fff2cc;strokeColor=#d6b656;strokeWidth=3;" vertex="1" parent="1">
          <mxGeometry x="1177.5" y="770" width="435" height="50" as="geometry" />
        </mxCell>
        <mxCell id="ooGf7dzvASG-FYTZT6tG-144" style="edgeStyle=orthogonalEdgeStyle;rounded=0;orthogonalLoop=1;jettySize=auto;html=1;exitX=0;exitY=0.5;exitDx=0;exitDy=0;strokeWidth=3;fillColor=#dae8fc;strokeColor=#6c8ebf;" edge="1" parent="1" source="ooGf7dzvASG-FYTZT6tG-112" target="ooGf7dzvASG-FYTZT6tG-67">
          <mxGeometry relative="1" as="geometry" />
        </mxCell>
        <mxCell id="ooGf7dzvASG-FYTZT6tG-112" value="&lt;font style=&quot;font-size: 30px;&quot; face=&quot;Times New Roman&quot;&gt;zero convolution&lt;br&gt;&lt;/font&gt;" style="rounded=1;whiteSpace=wrap;html=1;fillColor=#fff2cc;strokeColor=#d6b656;strokeWidth=3;" vertex="1" parent="1">
          <mxGeometry x="1155" y="890" width="480" height="50" as="geometry" />
        </mxCell>
        <mxCell id="ooGf7dzvASG-FYTZT6tG-145" style="edgeStyle=orthogonalEdgeStyle;rounded=0;orthogonalLoop=1;jettySize=auto;html=1;exitX=0;exitY=0.5;exitDx=0;exitDy=0;entryX=1;entryY=0.5;entryDx=0;entryDy=0;strokeWidth=3;fillColor=#dae8fc;strokeColor=#6c8ebf;" edge="1" parent="1" source="ooGf7dzvASG-FYTZT6tG-113" target="ooGf7dzvASG-FYTZT6tG-68">
          <mxGeometry relative="1" as="geometry" />
        </mxCell>
        <mxCell id="ooGf7dzvASG-FYTZT6tG-113" value="&lt;font style=&quot;font-size: 30px;&quot; face=&quot;Times New Roman&quot;&gt;zero convolution&lt;br&gt;&lt;/font&gt;" style="rounded=1;whiteSpace=wrap;html=1;fillColor=#fff2cc;strokeColor=#d6b656;strokeWidth=3;" vertex="1" parent="1">
          <mxGeometry x="1140" y="1010" width="510" height="50" as="geometry" />
        </mxCell>
        <mxCell id="ooGf7dzvASG-FYTZT6tG-118" style="edgeStyle=orthogonalEdgeStyle;rounded=0;orthogonalLoop=1;jettySize=auto;html=1;exitX=0.5;exitY=0;exitDx=0;exitDy=0;entryX=0.5;entryY=1;entryDx=0;entryDy=0;endArrow=none;endFill=0;strokeColor=#6c8ebf;strokeWidth=3;fillColor=#dae8fc;" edge="1" parent="1" source="ooGf7dzvASG-FYTZT6tG-104" target="ooGf7dzvASG-FYTZT6tG-102">
          <mxGeometry relative="1" as="geometry">
            <mxPoint x="1405" y="135" as="sourcePoint" />
            <mxPoint x="1405" y="160" as="targetPoint" />
          </mxGeometry>
        </mxCell>
        <mxCell id="ooGf7dzvASG-FYTZT6tG-119" style="edgeStyle=orthogonalEdgeStyle;rounded=0;orthogonalLoop=1;jettySize=auto;html=1;exitX=0.5;exitY=0;exitDx=0;exitDy=0;entryX=0.5;entryY=1;entryDx=0;entryDy=0;endArrow=none;endFill=0;strokeColor=#6c8ebf;strokeWidth=3;fillColor=#dae8fc;" edge="1" parent="1" source="ooGf7dzvASG-FYTZT6tG-106" target="ooGf7dzvASG-FYTZT6tG-104">
          <mxGeometry relative="1" as="geometry">
            <mxPoint x="1405" y="280" as="sourcePoint" />
            <mxPoint x="1405" y="250" as="targetPoint" />
          </mxGeometry>
        </mxCell>
        <mxCell id="ooGf7dzvASG-FYTZT6tG-120" style="edgeStyle=orthogonalEdgeStyle;rounded=0;orthogonalLoop=1;jettySize=auto;html=1;exitX=0.5;exitY=0;exitDx=0;exitDy=0;entryX=0.5;entryY=1;entryDx=0;entryDy=0;endArrow=none;endFill=0;strokeColor=#6c8ebf;strokeWidth=3;fillColor=#dae8fc;" edge="1" parent="1" source="ooGf7dzvASG-FYTZT6tG-108" target="ooGf7dzvASG-FYTZT6tG-106">
          <mxGeometry relative="1" as="geometry">
            <mxPoint x="1405" y="400" as="sourcePoint" />
            <mxPoint x="1405" y="370" as="targetPoint" />
          </mxGeometry>
        </mxCell>
        <mxCell id="ooGf7dzvASG-FYTZT6tG-125" style="edgeStyle=orthogonalEdgeStyle;rounded=0;orthogonalLoop=1;jettySize=auto;html=1;exitX=0.5;exitY=1;exitDx=0;exitDy=0;entryX=0.5;entryY=0;entryDx=0;entryDy=0;strokeColor=#6c8ebf;strokeWidth=3;fillColor=#dae8fc;exitPerimeter=0;" edge="1" parent="1" source="ooGf7dzvASG-FYTZT6tG-149" target="ooGf7dzvASG-FYTZT6tG-100">
          <mxGeometry relative="1" as="geometry">
            <mxPoint x="1395" as="sourcePoint" />
          </mxGeometry>
        </mxCell>
        <mxCell id="ooGf7dzvASG-FYTZT6tG-127" style="edgeStyle=orthogonalEdgeStyle;rounded=0;orthogonalLoop=1;jettySize=auto;html=1;exitX=0.5;exitY=1;exitDx=0;exitDy=0;entryX=0.5;entryY=0;entryDx=0;entryDy=0;strokeWidth=3;strokeColor=#6c8ebf;endArrow=classicThin;endFill=1;fillColor=#dae8fc;" edge="1" parent="1" source="ooGf7dzvASG-FYTZT6tG-128" target="ooGf7dzvASG-FYTZT6tG-135">
          <mxGeometry relative="1" as="geometry" />
        </mxCell>
        <mxCell id="ooGf7dzvASG-FYTZT6tG-128" value="&lt;font style=&quot;font-size: 30px;&quot; face=&quot;Times New Roman&quot;&gt;$$\times 3$$&lt;/font&gt;" style="text;html=1;strokeColor=none;fillColor=none;align=center;verticalAlign=middle;whiteSpace=wrap;rounded=0;" vertex="1" parent="1">
          <mxGeometry x="1670" y="50" width="89.99" height="50" as="geometry" />
        </mxCell>
        <mxCell id="ooGf7dzvASG-FYTZT6tG-129" style="edgeStyle=orthogonalEdgeStyle;rounded=0;orthogonalLoop=1;jettySize=auto;html=1;exitX=0.5;exitY=1;exitDx=0;exitDy=0;strokeWidth=3;strokeColor=#6c8ebf;endArrow=classicThin;endFill=1;fillColor=#dae8fc;" edge="1" parent="1" source="ooGf7dzvASG-FYTZT6tG-130" target="ooGf7dzvASG-FYTZT6tG-134">
          <mxGeometry relative="1" as="geometry" />
        </mxCell>
        <mxCell id="ooGf7dzvASG-FYTZT6tG-130" value="&lt;font style=&quot;font-size: 30px;&quot; face=&quot;Times New Roman&quot;&gt;$$\times 3$$&lt;/font&gt;" style="text;html=1;strokeColor=none;fillColor=none;align=center;verticalAlign=middle;whiteSpace=wrap;rounded=0;" vertex="1" parent="1">
          <mxGeometry x="1635" y="170" width="89.99" height="50" as="geometry" />
        </mxCell>
        <mxCell id="ooGf7dzvASG-FYTZT6tG-131" value="&lt;font style=&quot;font-size: 30px;&quot; face=&quot;Times New Roman&quot;&gt;$$\times 3$$&lt;/font&gt;" style="text;html=1;strokeColor=none;fillColor=none;align=center;verticalAlign=middle;whiteSpace=wrap;rounded=0;" vertex="1" parent="1">
          <mxGeometry x="1612.5" y="290" width="67.5" height="50" as="geometry" />
        </mxCell>
        <mxCell id="ooGf7dzvASG-FYTZT6tG-132" value="&lt;font style=&quot;font-size: 30px;&quot; face=&quot;Times New Roman&quot;&gt;$$\times 3$$&lt;/font&gt;" style="text;html=1;strokeColor=none;fillColor=none;align=center;verticalAlign=middle;whiteSpace=wrap;rounded=0;" vertex="1" parent="1">
          <mxGeometry x="1586.25" y="410" width="53.75" height="50" as="geometry" />
        </mxCell>
        <mxCell id="ooGf7dzvASG-FYTZT6tG-133" value="&lt;font style=&quot;font-size: 30px;&quot; face=&quot;Times New Roman&quot;&gt;$$\times 3$$&lt;/font&gt;" style="text;html=1;strokeColor=none;fillColor=none;align=center;verticalAlign=middle;whiteSpace=wrap;rounded=0;" vertex="1" parent="1">
          <mxGeometry x="1586.25" y="650" width="53.75" height="50" as="geometry" />
        </mxCell>
        <mxCell id="ooGf7dzvASG-FYTZT6tG-134" value="&lt;font style=&quot;font-size: 30px;&quot; face=&quot;Times New Roman&quot;&gt;$$\times 3$$&lt;/font&gt;" style="text;html=1;strokeColor=none;fillColor=none;align=center;verticalAlign=middle;whiteSpace=wrap;rounded=0;" vertex="1" parent="1">
          <mxGeometry x="1635" y="890" width="89.99" height="50" as="geometry" />
        </mxCell>
        <mxCell id="ooGf7dzvASG-FYTZT6tG-135" value="&lt;font style=&quot;font-size: 30px;&quot; face=&quot;Times New Roman&quot;&gt;$$\times 3$$&lt;/font&gt;" style="text;html=1;strokeColor=none;fillColor=none;align=center;verticalAlign=middle;whiteSpace=wrap;rounded=0;" vertex="1" parent="1">
          <mxGeometry x="1670" y="1010" width="89.99" height="50" as="geometry" />
        </mxCell>
        <mxCell id="ooGf7dzvASG-FYTZT6tG-136" value="&lt;font style=&quot;font-size: 30px;&quot; face=&quot;Times New Roman&quot;&gt;$$\times 3$$&lt;/font&gt;" style="text;html=1;strokeColor=none;fillColor=none;align=center;verticalAlign=middle;whiteSpace=wrap;rounded=0;" vertex="1" parent="1">
          <mxGeometry x="1612.5" y="770" width="67.5" height="50" as="geometry" />
        </mxCell>
        <mxCell id="ooGf7dzvASG-FYTZT6tG-137" style="edgeStyle=orthogonalEdgeStyle;rounded=0;orthogonalLoop=1;jettySize=auto;html=1;exitX=0.5;exitY=1;exitDx=0;exitDy=0;strokeWidth=3;strokeColor=#6c8ebf;endArrow=classicThin;endFill=1;entryX=0.5;entryY=0;entryDx=0;entryDy=0;fillColor=#dae8fc;" edge="1" parent="1" source="ooGf7dzvASG-FYTZT6tG-131" target="ooGf7dzvASG-FYTZT6tG-136">
          <mxGeometry relative="1" as="geometry">
            <mxPoint x="1690" y="230" as="sourcePoint" />
            <mxPoint x="1690" y="900" as="targetPoint" />
          </mxGeometry>
        </mxCell>
        <mxCell id="ooGf7dzvASG-FYTZT6tG-138" style="edgeStyle=orthogonalEdgeStyle;rounded=0;orthogonalLoop=1;jettySize=auto;html=1;exitX=0.5;exitY=1;exitDx=0;exitDy=0;strokeWidth=3;strokeColor=#6c8ebf;endArrow=classicThin;endFill=1;entryX=0.5;entryY=0;entryDx=0;entryDy=0;fillColor=#dae8fc;" edge="1" parent="1" source="ooGf7dzvASG-FYTZT6tG-132" target="ooGf7dzvASG-FYTZT6tG-133">
          <mxGeometry relative="1" as="geometry">
            <mxPoint x="1700" y="240" as="sourcePoint" />
            <mxPoint x="1700" y="910" as="targetPoint" />
          </mxGeometry>
        </mxCell>
        <mxCell id="ooGf7dzvASG-FYTZT6tG-141" style="edgeStyle=orthogonalEdgeStyle;rounded=0;orthogonalLoop=1;jettySize=auto;html=1;exitX=0;exitY=0.5;exitDx=0;exitDy=0;entryX=1;entryY=0.5;entryDx=0;entryDy=0;fillColor=#dae8fc;strokeColor=#6c8ebf;strokeWidth=3;" edge="1" parent="1" source="ooGf7dzvASG-FYTZT6tG-140" target="ooGf7dzvASG-FYTZT6tG-17">
          <mxGeometry relative="1" as="geometry" />
        </mxCell>
        <mxCell id="ooGf7dzvASG-FYTZT6tG-150" style="edgeStyle=orthogonalEdgeStyle;rounded=0;orthogonalLoop=1;jettySize=auto;html=1;exitX=0.5;exitY=1;exitDx=0;exitDy=0;entryX=0.5;entryY=0;entryDx=0;entryDy=0;entryPerimeter=0;endArrow=none;endFill=0;strokeWidth=3;fillColor=#dae8fc;strokeColor=#6c8ebf;" edge="1" parent="1" source="ooGf7dzvASG-FYTZT6tG-146" target="ooGf7dzvASG-FYTZT6tG-149">
          <mxGeometry relative="1" as="geometry" />
        </mxCell>
        <mxCell id="ooGf7dzvASG-FYTZT6tG-146" value="&lt;font style=&quot;font-size: 30px;&quot; face=&quot;Times New Roman&quot;&gt;zero convolution&lt;br&gt;&lt;/font&gt;" style="rounded=1;whiteSpace=wrap;html=1;fillColor=#fff2cc;strokeColor=#d6b656;strokeWidth=3;" vertex="1" parent="1">
          <mxGeometry x="1228.44" y="-120" width="333.12" height="30" as="geometry" />
        </mxCell>
        <mxCell id="ooGf7dzvASG-FYTZT6tG-149" value="" style="verticalLabelPosition=bottom;shadow=0;dashed=0;align=center;html=1;verticalAlign=top;shape=mxgraph.electrical.abstract.summation_point;" vertex="1" parent="1">
          <mxGeometry x="1370.01" y="-60" width="50" height="50" as="geometry" />
        </mxCell>
        <mxCell id="ooGf7dzvASG-FYTZT6tG-153" style="edgeStyle=orthogonalEdgeStyle;rounded=0;orthogonalLoop=1;jettySize=auto;html=1;exitX=0.5;exitY=1;exitDx=0;exitDy=0;entryX=0.5;entryY=0;entryDx=0;entryDy=0;strokeWidth=3;fillColor=#dae8fc;strokeColor=#6c8ebf;" edge="1" parent="1" source="ooGf7dzvASG-FYTZT6tG-152" target="ooGf7dzvASG-FYTZT6tG-146">
          <mxGeometry relative="1" as="geometry" />
        </mxCell>
        <mxCell id="ooGf7dzvASG-FYTZT6tG-152" value="&lt;font style=&quot;font-size: 30px;&quot; face=&quot;Times New Roman&quot;&gt;Condition&lt;/font&gt;" style="text;html=1;strokeColor=none;fillColor=none;align=center;verticalAlign=middle;whiteSpace=wrap;rounded=0;" vertex="1" parent="1">
          <mxGeometry x="1340" y="-210" width="110" height="50" as="geometry" />
        </mxCell>
        <mxCell id="ooGf7dzvASG-FYTZT6tG-154" value="&lt;font style=&quot;font-size: 30px;&quot; face=&quot;Times New Roman&quot;&gt;Prompt &amp;amp; Time&lt;/font&gt;" style="text;html=1;strokeColor=none;fillColor=none;align=center;verticalAlign=middle;whiteSpace=wrap;rounded=0;" vertex="1" parent="1">
          <mxGeometry x="995" y="-15" width="200.01" height="50" as="geometry" />
        </mxCell>
        <mxCell id="ooGf7dzvASG-FYTZT6tG-160" style="edgeStyle=orthogonalEdgeStyle;rounded=0;orthogonalLoop=1;jettySize=auto;html=1;exitX=0.25;exitY=1;exitDx=0;exitDy=0;entryX=0;entryY=0.75;entryDx=0;entryDy=0;strokeWidth=6;strokeColor=#E6E6E6;endArrow=none;endFill=0;" edge="1" parent="1" source="ooGf7dzvASG-FYTZT6tG-154" target="ooGf7dzvASG-FYTZT6tG-100">
          <mxGeometry relative="1" as="geometry">
            <mxPoint x="400" y="113" as="sourcePoint" />
            <mxPoint x="250" y="400" as="targetPoint" />
            <Array as="points">
              <mxPoint x="1045" y="100" />
              <mxPoint x="1140" y="100" />
            </Array>
          </mxGeometry>
        </mxCell>
        <mxCell id="ooGf7dzvASG-FYTZT6tG-161" style="edgeStyle=orthogonalEdgeStyle;rounded=0;orthogonalLoop=1;jettySize=auto;html=1;exitX=0.25;exitY=1;exitDx=0;exitDy=0;entryX=0;entryY=0.75;entryDx=0;entryDy=0;strokeWidth=6;strokeColor=#E6E6E6;endArrow=none;endFill=0;" edge="1" parent="1" source="ooGf7dzvASG-FYTZT6tG-154" target="ooGf7dzvASG-FYTZT6tG-102">
          <mxGeometry relative="1" as="geometry">
            <mxPoint x="1055" y="45" as="sourcePoint" />
            <mxPoint x="1150" y="113" as="targetPoint" />
            <Array as="points">
              <mxPoint x="1045" y="217" />
            </Array>
          </mxGeometry>
        </mxCell>
        <mxCell id="ooGf7dzvASG-FYTZT6tG-162" style="edgeStyle=orthogonalEdgeStyle;rounded=0;orthogonalLoop=1;jettySize=auto;html=1;exitX=0.25;exitY=1;exitDx=0;exitDy=0;entryX=0;entryY=0.75;entryDx=0;entryDy=0;strokeWidth=6;strokeColor=#E6E6E6;endArrow=none;endFill=0;" edge="1" parent="1" source="ooGf7dzvASG-FYTZT6tG-154" target="ooGf7dzvASG-FYTZT6tG-104">
          <mxGeometry relative="1" as="geometry">
            <mxPoint x="1065" y="55" as="sourcePoint" />
            <mxPoint x="1160" y="123" as="targetPoint" />
            <Array as="points">
              <mxPoint x="1045" y="337" />
            </Array>
          </mxGeometry>
        </mxCell>
        <mxCell id="ooGf7dzvASG-FYTZT6tG-163" style="edgeStyle=orthogonalEdgeStyle;rounded=0;orthogonalLoop=1;jettySize=auto;html=1;exitX=0.25;exitY=1;exitDx=0;exitDy=0;entryX=0;entryY=0.75;entryDx=0;entryDy=0;strokeWidth=6;strokeColor=#E6E6E6;endArrow=none;endFill=0;" edge="1" parent="1" source="ooGf7dzvASG-FYTZT6tG-154" target="ooGf7dzvASG-FYTZT6tG-106">
          <mxGeometry relative="1" as="geometry">
            <mxPoint x="1075" y="65" as="sourcePoint" />
            <mxPoint x="1170" y="133" as="targetPoint" />
            <Array as="points">
              <mxPoint x="1045" y="457" />
            </Array>
          </mxGeometry>
        </mxCell>
        <mxCell id="ooGf7dzvASG-FYTZT6tG-164" style="edgeStyle=orthogonalEdgeStyle;rounded=0;orthogonalLoop=1;jettySize=auto;html=1;exitX=0.25;exitY=1;exitDx=0;exitDy=0;entryX=0;entryY=0.75;entryDx=0;entryDy=0;strokeWidth=6;strokeColor=#E6E6E6;endArrow=none;endFill=0;" edge="1" parent="1" source="ooGf7dzvASG-FYTZT6tG-154" target="ooGf7dzvASG-FYTZT6tG-108">
          <mxGeometry relative="1" as="geometry">
            <mxPoint x="1085" y="75" as="sourcePoint" />
            <mxPoint x="1180" y="143" as="targetPoint" />
            <Array as="points">
              <mxPoint x="1045" y="578" />
              <mxPoint x="1227" y="578" />
            </Array>
          </mxGeometry>
        </mxCell>
        <mxCell id="ooGf7dzvASG-FYTZT6tG-155" style="edgeStyle=orthogonalEdgeStyle;rounded=0;orthogonalLoop=1;jettySize=auto;html=1;exitX=0.5;exitY=1;exitDx=0;exitDy=0;entryX=0;entryY=0.5;entryDx=0;entryDy=0;strokeWidth=3;endArrow=none;endFill=0;strokeColor=#B3B3B3;" edge="1" parent="1" source="ooGf7dzvASG-FYTZT6tG-154" target="ooGf7dzvASG-FYTZT6tG-108">
          <mxGeometry relative="1" as="geometry" />
        </mxCell>
        <mxCell id="ooGf7dzvASG-FYTZT6tG-156" style="edgeStyle=orthogonalEdgeStyle;rounded=0;orthogonalLoop=1;jettySize=auto;html=1;exitX=0.5;exitY=1;exitDx=0;exitDy=0;entryX=0;entryY=0.5;entryDx=0;entryDy=0;strokeWidth=3;endArrow=none;endFill=0;strokeColor=#B3B3B3;" edge="1" parent="1" source="ooGf7dzvASG-FYTZT6tG-154" target="ooGf7dzvASG-FYTZT6tG-106">
          <mxGeometry relative="1" as="geometry">
            <mxPoint x="1105" y="45" as="sourcePoint" />
            <mxPoint x="1237" y="565" as="targetPoint" />
          </mxGeometry>
        </mxCell>
        <mxCell id="ooGf7dzvASG-FYTZT6tG-157" style="edgeStyle=orthogonalEdgeStyle;rounded=0;orthogonalLoop=1;jettySize=auto;html=1;exitX=0.5;exitY=1;exitDx=0;exitDy=0;entryX=0;entryY=0.5;entryDx=0;entryDy=0;strokeWidth=3;endArrow=none;endFill=0;strokeColor=#B3B3B3;" edge="1" parent="1" source="ooGf7dzvASG-FYTZT6tG-154" target="ooGf7dzvASG-FYTZT6tG-104">
          <mxGeometry relative="1" as="geometry">
            <mxPoint x="1115" y="55" as="sourcePoint" />
            <mxPoint x="1247" y="575" as="targetPoint" />
          </mxGeometry>
        </mxCell>
        <mxCell id="ooGf7dzvASG-FYTZT6tG-158" style="edgeStyle=orthogonalEdgeStyle;rounded=0;orthogonalLoop=1;jettySize=auto;html=1;exitX=0.5;exitY=1;exitDx=0;exitDy=0;entryX=0;entryY=0.5;entryDx=0;entryDy=0;strokeWidth=3;endArrow=none;endFill=0;strokeColor=#B3B3B3;" edge="1" parent="1" source="ooGf7dzvASG-FYTZT6tG-154" target="ooGf7dzvASG-FYTZT6tG-102">
          <mxGeometry relative="1" as="geometry">
            <mxPoint x="1125" y="65" as="sourcePoint" />
            <mxPoint x="1257" y="585" as="targetPoint" />
          </mxGeometry>
        </mxCell>
        <mxCell id="ooGf7dzvASG-FYTZT6tG-159" style="edgeStyle=orthogonalEdgeStyle;rounded=0;orthogonalLoop=1;jettySize=auto;html=1;entryX=0;entryY=0.5;entryDx=0;entryDy=0;strokeWidth=3;endArrow=none;endFill=0;strokeColor=#B3B3B3;exitX=0.5;exitY=1;exitDx=0;exitDy=0;" edge="1" parent="1" source="ooGf7dzvASG-FYTZT6tG-154" target="ooGf7dzvASG-FYTZT6tG-100">
          <mxGeometry relative="1" as="geometry">
            <mxPoint x="1135" y="75" as="sourcePoint" />
            <mxPoint x="1267" y="595" as="targetPoint" />
          </mxGeometry>
        </mxCell>
        <mxCell id="ooGf7dzvASG-FYTZT6tG-100" value="&lt;font style=&quot;font-size: 30px;&quot; face=&quot;Times New Roman&quot;&gt;SD Encoder Block_1&lt;br&gt;64 x 64 (trainable copy)&lt;br&gt;&lt;/font&gt;" style="rounded=1;whiteSpace=wrap;html=1;fillColor=#dae8fc;strokeColor=#6c8ebf;strokeWidth=3;" vertex="1" parent="1">
          <mxGeometry x="1140" y="35" width="510" height="90" as="geometry" />
        </mxCell>
        <mxCell id="ooGf7dzvASG-FYTZT6tG-102" value="&lt;font style=&quot;font-size: 30px;&quot; face=&quot;Times New Roman&quot;&gt;SD Encoder Block_2&lt;br&gt;32 x 32 (trainable copy)&lt;br&gt;&lt;/font&gt;" style="rounded=1;whiteSpace=wrap;html=1;fillColor=#dae8fc;strokeColor=#6c8ebf;strokeWidth=3;" vertex="1" parent="1">
          <mxGeometry x="1155" y="150" width="480" height="90" as="geometry" />
        </mxCell>
        <mxCell id="ooGf7dzvASG-FYTZT6tG-104" value="&lt;font style=&quot;font-size: 30px;&quot; face=&quot;Times New Roman&quot;&gt;SD Encoder Block_3&lt;br&gt;16 x 16 (trainable copy)&lt;br&gt;&lt;/font&gt;" style="rounded=1;whiteSpace=wrap;html=1;fillColor=#dae8fc;strokeColor=#6c8ebf;strokeWidth=3;" vertex="1" parent="1">
          <mxGeometry x="1177.5" y="270" width="435" height="90" as="geometry" />
        </mxCell>
        <mxCell id="ooGf7dzvASG-FYTZT6tG-106" value="&lt;font style=&quot;font-size: 30px;&quot; face=&quot;Times New Roman&quot;&gt;SD Encoder Block_4&lt;br&gt;8 x 8 (trainable copy)&lt;br&gt;&lt;/font&gt;" style="rounded=1;whiteSpace=wrap;html=1;fillColor=#dae8fc;strokeColor=#6c8ebf;strokeWidth=3;" vertex="1" parent="1">
          <mxGeometry x="1203.75" y="390" width="382.5" height="90" as="geometry" />
        </mxCell>
        <mxCell id="ooGf7dzvASG-FYTZT6tG-108" value="&lt;font style=&quot;font-size: 30px;&quot; face=&quot;Times New Roman&quot;&gt;SD Middle Block&lt;br&gt;8 x 8 (trainable copy)&lt;br&gt;&lt;/font&gt;" style="rounded=1;whiteSpace=wrap;html=1;fillColor=#dae8fc;strokeColor=#6c8ebf;strokeWidth=3;" vertex="1" parent="1">
          <mxGeometry x="1226.88" y="510" width="336.25" height="90" as="geometry" />
        </mxCell>
        <mxCell id="ooGf7dzvASG-FYTZT6tG-9" value="&lt;font style=&quot;font-size: 30px;&quot; face=&quot;Times New Roman&quot;&gt;SD Encoder Block_1&lt;br&gt;64 x 64&lt;br&gt;&lt;/font&gt;" style="rounded=1;whiteSpace=wrap;html=1;fillColor=#f5f5f5;fontColor=#333333;strokeColor=#B3B3B3;strokeWidth=3;" vertex="1" parent="1">
          <mxGeometry x="309" y="35" width="510" height="90" as="geometry" />
        </mxCell>
        <mxCell id="ooGf7dzvASG-FYTZT6tG-10" value="" style="sketch=0;aspect=fixed;pointerEvents=1;shadow=0;dashed=0;html=1;strokeColor=none;labelPosition=center;verticalLabelPosition=bottom;verticalAlign=top;align=center;fillColor=#00188D;shape=mxgraph.mscae.enterprise.lock" vertex="1" parent="1">
          <mxGeometry x="765" y="55" width="39" height="50" as="geometry" />
        </mxCell>
        <mxCell id="ooGf7dzvASG-FYTZT6tG-11" value="&lt;font style=&quot;font-size: 30px;&quot; face=&quot;Times New Roman&quot;&gt;SD Encoder Block_2&lt;br&gt;32 x 32&lt;br&gt;&lt;/font&gt;" style="rounded=1;whiteSpace=wrap;html=1;fillColor=#f5f5f5;fontColor=#333333;strokeColor=#B3B3B3;strokeWidth=3;" vertex="1" parent="1">
          <mxGeometry x="324" y="150" width="480" height="90" as="geometry" />
        </mxCell>
        <mxCell id="ooGf7dzvASG-FYTZT6tG-12" value="" style="sketch=0;aspect=fixed;pointerEvents=1;shadow=0;dashed=0;html=1;strokeColor=none;labelPosition=center;verticalLabelPosition=bottom;verticalAlign=top;align=center;fillColor=#00188D;shape=mxgraph.mscae.enterprise.lock" vertex="1" parent="1">
          <mxGeometry x="746" y="170" width="39" height="50" as="geometry" />
        </mxCell>
        <mxCell id="ooGf7dzvASG-FYTZT6tG-13" value="&lt;font style=&quot;font-size: 30px;&quot; face=&quot;Times New Roman&quot;&gt;SD Encoder Block_3&lt;br&gt;16 x 16&lt;br&gt;&lt;/font&gt;" style="rounded=1;whiteSpace=wrap;html=1;fillColor=#f5f5f5;fontColor=#333333;strokeColor=#B3B3B3;strokeWidth=3;" vertex="1" parent="1">
          <mxGeometry x="346.5" y="270" width="435" height="90" as="geometry" />
        </mxCell>
        <mxCell id="ooGf7dzvASG-FYTZT6tG-14" value="" style="sketch=0;aspect=fixed;pointerEvents=1;shadow=0;dashed=0;html=1;strokeColor=none;labelPosition=center;verticalLabelPosition=bottom;verticalAlign=top;align=center;fillColor=#00188D;shape=mxgraph.mscae.enterprise.lock" vertex="1" parent="1">
          <mxGeometry x="726" y="290" width="39" height="50" as="geometry" />
        </mxCell>
        <mxCell id="ooGf7dzvASG-FYTZT6tG-15" value="&lt;font style=&quot;font-size: 30px;&quot; face=&quot;Times New Roman&quot;&gt;SD Encoder Block_4&lt;br&gt;8 x 8&lt;br&gt;&lt;/font&gt;" style="rounded=1;whiteSpace=wrap;html=1;fillColor=#f5f5f5;fontColor=#333333;strokeColor=#B3B3B3;strokeWidth=3;" vertex="1" parent="1">
          <mxGeometry x="372.75" y="390" width="382.5" height="90" as="geometry" />
        </mxCell>
        <mxCell id="ooGf7dzvASG-FYTZT6tG-16" value="" style="sketch=0;aspect=fixed;pointerEvents=1;shadow=0;dashed=0;html=1;strokeColor=none;labelPosition=center;verticalLabelPosition=bottom;verticalAlign=top;align=center;fillColor=#00188D;shape=mxgraph.mscae.enterprise.lock" vertex="1" parent="1">
          <mxGeometry x="699" y="410" width="39" height="50" as="geometry" />
        </mxCell>
        <mxCell id="ooGf7dzvASG-FYTZT6tG-17" value="&lt;font style=&quot;font-size: 30px;&quot; face=&quot;Times New Roman&quot;&gt;SD Middle Block&lt;br&gt;8 x 8&lt;br&gt;&lt;/font&gt;" style="rounded=1;whiteSpace=wrap;html=1;fillColor=#f5f5f5;fontColor=#333333;strokeColor=#B3B3B3;strokeWidth=3;" vertex="1" parent="1">
          <mxGeometry x="395.88" y="510" width="336.25" height="90" as="geometry" />
        </mxCell>
        <mxCell id="ooGf7dzvASG-FYTZT6tG-18" value="" style="sketch=0;aspect=fixed;pointerEvents=1;shadow=0;dashed=0;html=1;strokeColor=none;labelPosition=center;verticalLabelPosition=bottom;verticalAlign=top;align=center;fillColor=#00188D;shape=mxgraph.mscae.enterprise.lock" vertex="1" parent="1">
          <mxGeometry x="679" y="530" width="39" height="50" as="geometry" />
        </mxCell>
        <mxCell id="ooGf7dzvASG-FYTZT6tG-19" value="&lt;font style=&quot;font-size: 30px;&quot; face=&quot;Times New Roman&quot;&gt;SD Decoder Block_4&lt;br&gt;8 x 8&lt;br&gt;&lt;/font&gt;" style="rounded=1;whiteSpace=wrap;html=1;fillColor=#f5f5f5;fontColor=#333333;strokeColor=#B3B3B3;strokeWidth=3;" vertex="1" parent="1">
          <mxGeometry x="372.75" y="630" width="382.5" height="90" as="geometry" />
        </mxCell>
        <mxCell id="ooGf7dzvASG-FYTZT6tG-21" value="&lt;font style=&quot;font-size: 30px;&quot; face=&quot;Times New Roman&quot;&gt;SD Decoder Block_3&lt;br&gt;16 x 16&lt;br&gt;&lt;/font&gt;" style="rounded=1;whiteSpace=wrap;html=1;fillColor=#f5f5f5;fontColor=#333333;strokeColor=#B3B3B3;strokeWidth=3;" vertex="1" parent="1">
          <mxGeometry x="346.5" y="750" width="435" height="90" as="geometry" />
        </mxCell>
        <mxCell id="ooGf7dzvASG-FYTZT6tG-22" value="&lt;font style=&quot;font-size: 30px;&quot; face=&quot;Times New Roman&quot;&gt;SD Decoder Block_2&lt;br&gt;32 x 32&lt;br&gt;&lt;/font&gt;" style="rounded=1;whiteSpace=wrap;html=1;fillColor=#f5f5f5;fontColor=#333333;strokeColor=#B3B3B3;strokeWidth=3;" vertex="1" parent="1">
          <mxGeometry x="324.01" y="870" width="480" height="90" as="geometry" />
        </mxCell>
        <mxCell id="ooGf7dzvASG-FYTZT6tG-23" value="&lt;font style=&quot;font-size: 30px;&quot; face=&quot;Times New Roman&quot;&gt;SD Decoder Block_1&lt;br&gt;64 x 64&lt;br&gt;&lt;/font&gt;" style="rounded=1;whiteSpace=wrap;html=1;fillColor=#f5f5f5;fontColor=#333333;strokeColor=#B3B3B3;strokeWidth=3;" vertex="1" parent="1">
          <mxGeometry x="309.01" y="990" width="510" height="90" as="geometry" />
        </mxCell>
        <mxCell id="ooGf7dzvASG-FYTZT6tG-24" value="" style="sketch=0;aspect=fixed;pointerEvents=1;shadow=0;dashed=0;html=1;strokeColor=none;labelPosition=center;verticalLabelPosition=bottom;verticalAlign=top;align=center;fillColor=#00188D;shape=mxgraph.mscae.enterprise.lock" vertex="1" parent="1">
          <mxGeometry x="699" y="650" width="39" height="50" as="geometry" />
        </mxCell>
        <mxCell id="ooGf7dzvASG-FYTZT6tG-25" value="" style="sketch=0;aspect=fixed;pointerEvents=1;shadow=0;dashed=0;html=1;strokeColor=none;labelPosition=center;verticalLabelPosition=bottom;verticalAlign=top;align=center;fillColor=#00188D;shape=mxgraph.mscae.enterprise.lock" vertex="1" parent="1">
          <mxGeometry x="726" y="770" width="39" height="50" as="geometry" />
        </mxCell>
        <mxCell id="ooGf7dzvASG-FYTZT6tG-26" value="" style="sketch=0;aspect=fixed;pointerEvents=1;shadow=0;dashed=0;html=1;strokeColor=none;labelPosition=center;verticalLabelPosition=bottom;verticalAlign=top;align=center;fillColor=#00188D;shape=mxgraph.mscae.enterprise.lock" vertex="1" parent="1">
          <mxGeometry x="746" y="890" width="39" height="50" as="geometry" />
        </mxCell>
        <mxCell id="ooGf7dzvASG-FYTZT6tG-27" value="" style="sketch=0;aspect=fixed;pointerEvents=1;shadow=0;dashed=0;html=1;strokeColor=none;labelPosition=center;verticalLabelPosition=bottom;verticalAlign=top;align=center;fillColor=#00188D;shape=mxgraph.mscae.enterprise.lock" vertex="1" parent="1">
          <mxGeometry x="765" y="1010" width="39" height="50" as="geometry" />
        </mxCell>
      </root>
    </mxGraphModel>
  </diagram>
  <diagram name="controlnet-before" id="9MwncAkphc7w_oaf_tr0">
    <mxGraphModel grid="1" page="1" gridSize="10" guides="1" tooltips="1" connect="1" arrows="1" fold="1" pageScale="1" pageWidth="827" pageHeight="1169" math="1" shadow="0">
      <root>
        <mxCell id="qn6CH7suATHsDOlOES7y-0" />
        <mxCell id="qn6CH7suATHsDOlOES7y-1" parent="qn6CH7suATHsDOlOES7y-0" />
        <mxCell id="qn6CH7suATHsDOlOES7y-3" value="&lt;font style=&quot;font-size: 30px;&quot; face=&quot;Times New Roman&quot;&gt;Neural network&lt;br&gt;block&lt;br&gt;&lt;/font&gt;" style="rounded=1;whiteSpace=wrap;html=1;fillColor=#f5f5f5;fontColor=#333333;strokeColor=#B3B3B3;strokeWidth=3;" parent="qn6CH7suATHsDOlOES7y-1" vertex="1">
          <mxGeometry x="-110" y="50" width="269" height="100" as="geometry" />
        </mxCell>
        <mxCell id="qn6CH7suATHsDOlOES7y-5" style="edgeStyle=orthogonalEdgeStyle;rounded=0;orthogonalLoop=1;jettySize=auto;html=1;entryX=0.5;entryY=0;entryDx=0;entryDy=0;strokeWidth=3;strokeColor=#B3B3B3;exitX=0.5;exitY=1;exitDx=0;exitDy=0;" parent="qn6CH7suATHsDOlOES7y-1" source="qn6CH7suATHsDOlOES7y-7" target="qn6CH7suATHsDOlOES7y-3" edge="1">
          <mxGeometry relative="1" as="geometry">
            <mxPoint x="49" y="-10" as="sourcePoint" />
            <mxPoint x="59" y="370" as="targetPoint" />
          </mxGeometry>
        </mxCell>
        <mxCell id="qn6CH7suATHsDOlOES7y-7" value="&lt;font style=&quot;font-size: 40px;&quot; face=&quot;Times New Roman&quot;&gt;$$x$$&lt;/font&gt;" style="text;html=1;strokeColor=none;fillColor=none;align=center;verticalAlign=middle;whiteSpace=wrap;rounded=0;" parent="qn6CH7suATHsDOlOES7y-1" vertex="1">
          <mxGeometry x="-5.75" y="-70" width="60.5" height="60" as="geometry" />
        </mxCell>
        <mxCell id="qn6CH7suATHsDOlOES7y-8" value="&lt;font style=&quot;font-size: 40px;&quot; face=&quot;Times New Roman&quot;&gt;$$y$$&lt;/font&gt;" style="text;html=1;strokeColor=none;fillColor=none;align=center;verticalAlign=middle;whiteSpace=wrap;rounded=0;" parent="qn6CH7suATHsDOlOES7y-1" vertex="1">
          <mxGeometry x="-30.5" y="280" width="110" height="40" as="geometry" />
        </mxCell>
        <mxCell id="qn6CH7suATHsDOlOES7y-9" style="edgeStyle=orthogonalEdgeStyle;rounded=0;orthogonalLoop=1;jettySize=auto;html=1;strokeWidth=3;strokeColor=#B3B3B3;exitX=0.5;exitY=1;exitDx=0;exitDy=0;" parent="qn6CH7suATHsDOlOES7y-1" source="qn6CH7suATHsDOlOES7y-3" target="qn6CH7suATHsDOlOES7y-8" edge="1">
          <mxGeometry relative="1" as="geometry">
            <mxPoint x="35" as="sourcePoint" />
            <mxPoint x="35" y="60" as="targetPoint" />
          </mxGeometry>
        </mxCell>
      </root>
    </mxGraphModel>
  </diagram>
  <diagram id="Sl90_8MHQop_WuG3LpGB" name="controlnet-after">
    <mxGraphModel grid="1" page="1" gridSize="10" guides="1" tooltips="1" connect="1" arrows="1" fold="1" pageScale="1" pageWidth="827" pageHeight="1169" math="1" shadow="0">
      <root>
        <mxCell id="0" />
        <mxCell id="1" parent="0" />
        <mxCell id="AjTezYvivLtLe9AOOeTb-1" value="&lt;font style=&quot;font-size: 30px;&quot;&gt;ControlNet&lt;/font&gt;" style="rounded=1;whiteSpace=wrap;html=1;fillColor=none;strokeColor=#6c8ebf;strokeWidth=3;dashed=1;dashPattern=1 1;arcSize=4;align=center;verticalAlign=bottom;fontSize=50;fontFamily=Times New Roman;spacingLeft=15;" vertex="1" parent="1">
          <mxGeometry x="224.5" y="-160" width="320" height="440" as="geometry" />
        </mxCell>
        <mxCell id="h9F0FJNnJ_3FKFiPNm7r-1" value="&lt;font style=&quot;font-size: 30px;&quot; face=&quot;Times New Roman&quot;&gt;Neural network&lt;br&gt;block (locked)&lt;br&gt;&lt;/font&gt;" style="rounded=1;whiteSpace=wrap;html=1;fillColor=#f5f5f5;fontColor=#333333;strokeColor=#B3B3B3;strokeWidth=3;" vertex="1" parent="1">
          <mxGeometry x="-110" y="50" width="269" height="100" as="geometry" />
        </mxCell>
        <mxCell id="h9F0FJNnJ_3FKFiPNm7r-2" value="" style="sketch=0;aspect=fixed;pointerEvents=1;shadow=0;dashed=0;html=1;strokeColor=none;labelPosition=center;verticalLabelPosition=bottom;verticalAlign=top;align=center;fillColor=#00188D;shape=mxgraph.mscae.enterprise.lock" vertex="1" parent="1">
          <mxGeometry x="139" y="20" width="39" height="50" as="geometry" />
        </mxCell>
        <mxCell id="h9F0FJNnJ_3FKFiPNm7r-3" style="edgeStyle=orthogonalEdgeStyle;rounded=0;orthogonalLoop=1;jettySize=auto;html=1;entryX=0.5;entryY=0;entryDx=0;entryDy=0;strokeWidth=3;strokeColor=#B3B3B3;exitX=0.5;exitY=1;exitDx=0;exitDy=0;" edge="1" parent="1" source="vRPuRBt-ZGdnaUMxC9wu-1" target="h9F0FJNnJ_3FKFiPNm7r-1">
          <mxGeometry relative="1" as="geometry">
            <mxPoint x="49" y="-10" as="sourcePoint" />
            <mxPoint x="59" y="370" as="targetPoint" />
          </mxGeometry>
        </mxCell>
        <mxCell id="Xds5C4HgPIPQJLGeS0P9-7" style="edgeStyle=orthogonalEdgeStyle;rounded=0;orthogonalLoop=1;jettySize=auto;html=1;exitX=1;exitY=0.5;exitDx=0;exitDy=0;entryX=0;entryY=0.5;entryDx=0;entryDy=0;entryPerimeter=0;strokeWidth=3;fillColor=#dae8fc;strokeColor=#6c8ebf;" edge="1" parent="1" source="vRPuRBt-ZGdnaUMxC9wu-1" target="Xds5C4HgPIPQJLGeS0P9-5">
          <mxGeometry relative="1" as="geometry" />
        </mxCell>
        <mxCell id="vRPuRBt-ZGdnaUMxC9wu-1" value="&lt;font style=&quot;font-size: 40px;&quot; face=&quot;Times New Roman&quot;&gt;$$x$$&lt;/font&gt;" style="text;html=1;strokeColor=none;fillColor=none;align=center;verticalAlign=middle;whiteSpace=wrap;rounded=0;" vertex="1" parent="1">
          <mxGeometry x="-5.75" y="-70" width="60.5" height="60" as="geometry" />
        </mxCell>
        <mxCell id="vRPuRBt-ZGdnaUMxC9wu-3" value="&lt;font style=&quot;font-size: 40px;&quot; face=&quot;Times New Roman&quot;&gt;$$y$$&lt;/font&gt;" style="text;html=1;strokeColor=none;fillColor=none;align=center;verticalAlign=middle;whiteSpace=wrap;rounded=0;" vertex="1" parent="1">
          <mxGeometry x="-30.5" y="280" width="110" height="40" as="geometry" />
        </mxCell>
        <mxCell id="Xds5C4HgPIPQJLGeS0P9-2" style="edgeStyle=orthogonalEdgeStyle;rounded=0;orthogonalLoop=1;jettySize=auto;html=1;strokeWidth=3;strokeColor=#B3B3B3;exitX=0.5;exitY=1;exitDx=0;exitDy=0;" edge="1" parent="1" source="h9F0FJNnJ_3FKFiPNm7r-1" target="vRPuRBt-ZGdnaUMxC9wu-3">
          <mxGeometry relative="1" as="geometry">
            <mxPoint x="35" as="sourcePoint" />
            <mxPoint x="35" y="60" as="targetPoint" />
          </mxGeometry>
        </mxCell>
        <mxCell id="Xds5C4HgPIPQJLGeS0P9-1" value="" style="verticalLabelPosition=bottom;shadow=0;dashed=0;align=center;html=1;verticalAlign=top;shape=mxgraph.electrical.abstract.summation_point;" vertex="1" parent="1">
          <mxGeometry x="-0.5" y="180" width="50" height="50" as="geometry" />
        </mxCell>
        <mxCell id="Xds5C4HgPIPQJLGeS0P9-3" value="&lt;font style=&quot;font-size: 30px;&quot; face=&quot;Times New Roman&quot;&gt;trainable copy&lt;br&gt;&lt;/font&gt;" style="rounded=1;whiteSpace=wrap;html=1;fillColor=#dae8fc;strokeColor=#6c8ebf;strokeWidth=3;" vertex="1" parent="1">
          <mxGeometry x="250" y="20" width="269" height="100" as="geometry" />
        </mxCell>
        <mxCell id="Xds5C4HgPIPQJLGeS0P9-8" style="edgeStyle=orthogonalEdgeStyle;rounded=0;orthogonalLoop=1;jettySize=auto;html=1;exitX=0.5;exitY=1;exitDx=0;exitDy=0;entryX=1;entryY=0.5;entryDx=0;entryDy=0;entryPerimeter=0;strokeWidth=3;fillColor=#dae8fc;strokeColor=#6c8ebf;" edge="1" parent="1" source="Xds5C4HgPIPQJLGeS0P9-3" target="Xds5C4HgPIPQJLGeS0P9-1">
          <mxGeometry relative="1" as="geometry" />
        </mxCell>
        <mxCell id="Xds5C4HgPIPQJLGeS0P9-4" value="&lt;font style=&quot;font-size: 30px;&quot; face=&quot;Times New Roman&quot;&gt;zero convolution&lt;br&gt;&lt;/font&gt;" style="rounded=1;whiteSpace=wrap;html=1;fillColor=#fff2cc;strokeColor=#d6b656;strokeWidth=3;" vertex="1" parent="1">
          <mxGeometry x="250" y="130" width="269" height="50" as="geometry" />
        </mxCell>
        <mxCell id="Xds5C4HgPIPQJLGeS0P9-5" value="" style="verticalLabelPosition=bottom;shadow=0;dashed=0;align=center;html=1;verticalAlign=top;shape=mxgraph.electrical.abstract.summation_point;" vertex="1" parent="1">
          <mxGeometry x="359.5" y="-65" width="50" height="50" as="geometry" />
        </mxCell>
        <mxCell id="Xds5C4HgPIPQJLGeS0P9-6" style="edgeStyle=orthogonalEdgeStyle;rounded=0;orthogonalLoop=1;jettySize=auto;html=1;entryX=0.5;entryY=0;entryDx=0;entryDy=0;strokeWidth=3;strokeColor=#6c8ebf;exitX=0.5;exitY=1;exitDx=0;exitDy=0;exitPerimeter=0;fillColor=#dae8fc;" edge="1" parent="1" source="Xds5C4HgPIPQJLGeS0P9-5" target="Xds5C4HgPIPQJLGeS0P9-3">
          <mxGeometry relative="1" as="geometry">
            <mxPoint x="35" as="sourcePoint" />
            <mxPoint x="35" y="60" as="targetPoint" />
          </mxGeometry>
        </mxCell>
        <mxCell id="Xds5C4HgPIPQJLGeS0P9-9" value="&lt;font style=&quot;font-size: 40px;&quot; face=&quot;Times New Roman&quot;&gt;$$c$$&lt;/font&gt;" style="text;html=1;strokeColor=none;fillColor=none;align=center;verticalAlign=middle;whiteSpace=wrap;rounded=0;" vertex="1" parent="1">
          <mxGeometry x="329.5" y="-230" width="110" height="50" as="geometry" />
        </mxCell>
        <mxCell id="Xds5C4HgPIPQJLGeS0P9-10" style="edgeStyle=orthogonalEdgeStyle;rounded=0;orthogonalLoop=1;jettySize=auto;html=1;entryX=0.5;entryY=0;entryDx=0;entryDy=0;strokeWidth=3;strokeColor=#6c8ebf;exitX=0.5;exitY=1;exitDx=0;exitDy=0;fillColor=#dae8fc;entryPerimeter=0;endArrow=none;endFill=0;" edge="1" parent="1" source="If-OMImyulFbqmwcuPJR-1" target="Xds5C4HgPIPQJLGeS0P9-5">
          <mxGeometry relative="1" as="geometry">
            <mxPoint x="395" y="-5" as="sourcePoint" />
            <mxPoint x="395" y="30" as="targetPoint" />
          </mxGeometry>
        </mxCell>
        <mxCell id="If-OMImyulFbqmwcuPJR-2" value="" style="edgeStyle=orthogonalEdgeStyle;rounded=0;orthogonalLoop=1;jettySize=auto;html=1;entryX=0.5;entryY=0;entryDx=0;entryDy=0;strokeWidth=3;strokeColor=#6c8ebf;exitX=0.5;exitY=1;exitDx=0;exitDy=0;fillColor=#dae8fc;entryPerimeter=0;" edge="1" parent="1" source="Xds5C4HgPIPQJLGeS0P9-9" target="If-OMImyulFbqmwcuPJR-1">
          <mxGeometry relative="1" as="geometry">
            <mxPoint x="385" y="-200" as="sourcePoint" />
            <mxPoint x="385" y="-65" as="targetPoint" />
          </mxGeometry>
        </mxCell>
        <mxCell id="If-OMImyulFbqmwcuPJR-1" value="&lt;font style=&quot;font-size: 30px;&quot; face=&quot;Times New Roman&quot;&gt;zero convolution&lt;br&gt;&lt;/font&gt;" style="rounded=1;whiteSpace=wrap;html=1;fillColor=#fff2cc;strokeColor=#d6b656;strokeWidth=3;" vertex="1" parent="1">
          <mxGeometry x="250" y="-130" width="269" height="50" as="geometry" />
        </mxCell>
      </root>
    </mxGraphModel>
  </diagram>
  <diagram id="xoWi0tj6HnsNgFbwHFwN" name="controlnet">
    <mxGraphModel grid="1" page="1" gridSize="10" guides="1" tooltips="1" connect="1" arrows="1" fold="1" pageScale="1" pageWidth="827" pageHeight="1169" math="1" shadow="0">
      <root>
        <mxCell id="0" />
        <mxCell id="1" parent="0" />
        <mxCell id="5tShY_QZzGFOCNakptvJ-1" value="&lt;font style=&quot;font-size: 30px;&quot;&gt;ControlNet&lt;/font&gt;" style="rounded=1;whiteSpace=wrap;html=1;fillColor=none;strokeColor=#6c8ebf;strokeWidth=3;dashed=1;dashPattern=1 1;arcSize=4;align=center;verticalAlign=bottom;fontSize=50;fontFamily=Times New Roman;spacingLeft=15;" vertex="1" parent="1">
          <mxGeometry x="224.5" y="-160" width="320" height="440" as="geometry" />
        </mxCell>
        <mxCell id="5tShY_QZzGFOCNakptvJ-2" value="&lt;font style=&quot;font-size: 30px;&quot; face=&quot;Times New Roman&quot;&gt;Neural network&lt;br&gt;block (locked)&lt;br&gt;&lt;/font&gt;" style="rounded=1;whiteSpace=wrap;html=1;fillColor=#f5f5f5;fontColor=#333333;strokeColor=#B3B3B3;strokeWidth=3;" vertex="1" parent="1">
          <mxGeometry x="-110" y="50" width="269" height="100" as="geometry" />
        </mxCell>
        <mxCell id="5tShY_QZzGFOCNakptvJ-3" value="" style="sketch=0;aspect=fixed;pointerEvents=1;shadow=0;dashed=0;html=1;strokeColor=none;labelPosition=center;verticalLabelPosition=bottom;verticalAlign=top;align=center;fillColor=#00188D;shape=mxgraph.mscae.enterprise.lock" vertex="1" parent="1">
          <mxGeometry x="139" y="20" width="39" height="50" as="geometry" />
        </mxCell>
        <mxCell id="5tShY_QZzGFOCNakptvJ-4" style="edgeStyle=orthogonalEdgeStyle;rounded=0;orthogonalLoop=1;jettySize=auto;html=1;entryX=0.5;entryY=0;entryDx=0;entryDy=0;strokeWidth=3;strokeColor=#B3B3B3;exitX=0.5;exitY=1;exitDx=0;exitDy=0;" edge="1" parent="1" source="5tShY_QZzGFOCNakptvJ-6" target="5tShY_QZzGFOCNakptvJ-2">
          <mxGeometry relative="1" as="geometry">
            <mxPoint x="49" y="-10" as="sourcePoint" />
            <mxPoint x="59" y="370" as="targetPoint" />
          </mxGeometry>
        </mxCell>
        <mxCell id="5tShY_QZzGFOCNakptvJ-5" style="edgeStyle=orthogonalEdgeStyle;rounded=0;orthogonalLoop=1;jettySize=auto;html=1;exitX=1;exitY=0.5;exitDx=0;exitDy=0;entryX=0;entryY=0.5;entryDx=0;entryDy=0;entryPerimeter=0;strokeWidth=3;fillColor=#dae8fc;strokeColor=#6c8ebf;" edge="1" parent="1" source="5tShY_QZzGFOCNakptvJ-6" target="5tShY_QZzGFOCNakptvJ-13">
          <mxGeometry relative="1" as="geometry" />
        </mxCell>
        <mxCell id="5tShY_QZzGFOCNakptvJ-6" value="&lt;font style=&quot;font-size: 40px;&quot; face=&quot;Times New Roman&quot;&gt;$$x$$&lt;/font&gt;" style="text;html=1;strokeColor=none;fillColor=none;align=center;verticalAlign=middle;whiteSpace=wrap;rounded=0;" vertex="1" parent="1">
          <mxGeometry x="-5.75" y="-70" width="60.5" height="60" as="geometry" />
        </mxCell>
        <mxCell id="5tShY_QZzGFOCNakptvJ-7" value="&lt;font style=&quot;font-size: 40px;&quot; face=&quot;Times New Roman&quot;&gt;$$y$$&lt;/font&gt;" style="text;html=1;strokeColor=none;fillColor=none;align=center;verticalAlign=middle;whiteSpace=wrap;rounded=0;" vertex="1" parent="1">
          <mxGeometry x="-30.5" y="280" width="110" height="40" as="geometry" />
        </mxCell>
        <mxCell id="5tShY_QZzGFOCNakptvJ-8" style="edgeStyle=orthogonalEdgeStyle;rounded=0;orthogonalLoop=1;jettySize=auto;html=1;strokeWidth=3;strokeColor=#B3B3B3;exitX=0.5;exitY=1;exitDx=0;exitDy=0;" edge="1" parent="1" source="5tShY_QZzGFOCNakptvJ-2" target="5tShY_QZzGFOCNakptvJ-7">
          <mxGeometry relative="1" as="geometry">
            <mxPoint x="35" as="sourcePoint" />
            <mxPoint x="35" y="60" as="targetPoint" />
          </mxGeometry>
        </mxCell>
        <mxCell id="5tShY_QZzGFOCNakptvJ-9" value="" style="verticalLabelPosition=bottom;shadow=0;dashed=0;align=center;html=1;verticalAlign=top;shape=mxgraph.electrical.abstract.summation_point;" vertex="1" parent="1">
          <mxGeometry x="-0.5" y="180" width="50" height="50" as="geometry" />
        </mxCell>
        <mxCell id="5tShY_QZzGFOCNakptvJ-10" value="&lt;font style=&quot;font-size: 30px;&quot; face=&quot;Times New Roman&quot;&gt;trainable copy&lt;br&gt;&lt;/font&gt;" style="rounded=1;whiteSpace=wrap;html=1;fillColor=#dae8fc;strokeColor=#6c8ebf;strokeWidth=3;" vertex="1" parent="1">
          <mxGeometry x="250" y="20" width="269" height="100" as="geometry" />
        </mxCell>
        <mxCell id="5tShY_QZzGFOCNakptvJ-11" style="edgeStyle=orthogonalEdgeStyle;rounded=0;orthogonalLoop=1;jettySize=auto;html=1;exitX=0.5;exitY=1;exitDx=0;exitDy=0;entryX=1;entryY=0.5;entryDx=0;entryDy=0;entryPerimeter=0;strokeWidth=3;fillColor=#dae8fc;strokeColor=#6c8ebf;" edge="1" parent="1" source="5tShY_QZzGFOCNakptvJ-10" target="5tShY_QZzGFOCNakptvJ-9">
          <mxGeometry relative="1" as="geometry" />
        </mxCell>
        <mxCell id="5tShY_QZzGFOCNakptvJ-12" value="&lt;font style=&quot;font-size: 30px;&quot; face=&quot;Times New Roman&quot;&gt;zero convolution&lt;br&gt;&lt;/font&gt;" style="rounded=1;whiteSpace=wrap;html=1;fillColor=#fff2cc;strokeColor=#d6b656;strokeWidth=3;" vertex="1" parent="1">
          <mxGeometry x="250" y="130" width="269" height="50" as="geometry" />
        </mxCell>
        <mxCell id="5tShY_QZzGFOCNakptvJ-13" value="" style="verticalLabelPosition=bottom;shadow=0;dashed=0;align=center;html=1;verticalAlign=top;shape=mxgraph.electrical.abstract.summation_point;" vertex="1" parent="1">
          <mxGeometry x="359.5" y="-65" width="50" height="50" as="geometry" />
        </mxCell>
        <mxCell id="5tShY_QZzGFOCNakptvJ-14" style="edgeStyle=orthogonalEdgeStyle;rounded=0;orthogonalLoop=1;jettySize=auto;html=1;entryX=0.5;entryY=0;entryDx=0;entryDy=0;strokeWidth=3;strokeColor=#6c8ebf;exitX=0.5;exitY=1;exitDx=0;exitDy=0;exitPerimeter=0;fillColor=#dae8fc;" edge="1" parent="1" source="5tShY_QZzGFOCNakptvJ-13" target="5tShY_QZzGFOCNakptvJ-10">
          <mxGeometry relative="1" as="geometry">
            <mxPoint x="35" as="sourcePoint" />
            <mxPoint x="35" y="60" as="targetPoint" />
          </mxGeometry>
        </mxCell>
        <mxCell id="5tShY_QZzGFOCNakptvJ-15" value="&lt;font style=&quot;font-size: 40px;&quot; face=&quot;Times New Roman&quot;&gt;$$c$$&lt;/font&gt;" style="text;html=1;strokeColor=none;fillColor=none;align=center;verticalAlign=middle;whiteSpace=wrap;rounded=0;" vertex="1" parent="1">
          <mxGeometry x="329.5" y="-230" width="110" height="50" as="geometry" />
        </mxCell>
        <mxCell id="5tShY_QZzGFOCNakptvJ-16" style="edgeStyle=orthogonalEdgeStyle;rounded=0;orthogonalLoop=1;jettySize=auto;html=1;entryX=0.5;entryY=0;entryDx=0;entryDy=0;strokeWidth=3;strokeColor=#6c8ebf;exitX=0.5;exitY=1;exitDx=0;exitDy=0;fillColor=#dae8fc;entryPerimeter=0;endArrow=none;endFill=0;" edge="1" parent="1" source="5tShY_QZzGFOCNakptvJ-18" target="5tShY_QZzGFOCNakptvJ-13">
          <mxGeometry relative="1" as="geometry">
            <mxPoint x="395" y="-5" as="sourcePoint" />
            <mxPoint x="395" y="30" as="targetPoint" />
          </mxGeometry>
        </mxCell>
        <mxCell id="5tShY_QZzGFOCNakptvJ-17" value="" style="edgeStyle=orthogonalEdgeStyle;rounded=0;orthogonalLoop=1;jettySize=auto;html=1;entryX=0.5;entryY=0;entryDx=0;entryDy=0;strokeWidth=3;strokeColor=#6c8ebf;exitX=0.5;exitY=1;exitDx=0;exitDy=0;fillColor=#dae8fc;entryPerimeter=0;" edge="1" parent="1" source="5tShY_QZzGFOCNakptvJ-15" target="5tShY_QZzGFOCNakptvJ-18">
          <mxGeometry relative="1" as="geometry">
            <mxPoint x="385" y="-200" as="sourcePoint" />
            <mxPoint x="385" y="-65" as="targetPoint" />
          </mxGeometry>
        </mxCell>
        <mxCell id="5tShY_QZzGFOCNakptvJ-18" value="&lt;font style=&quot;font-size: 30px;&quot; face=&quot;Times New Roman&quot;&gt;zero convolution&lt;br&gt;&lt;/font&gt;" style="rounded=1;whiteSpace=wrap;html=1;fillColor=#fff2cc;strokeColor=#d6b656;strokeWidth=3;" vertex="1" parent="1">
          <mxGeometry x="250" y="-130" width="269" height="50" as="geometry" />
        </mxCell>
        <mxCell id="Qcf1whdZuRaTykeOf3m4-1" value="&lt;font style=&quot;font-size: 30px;&quot; face=&quot;Times New Roman&quot;&gt;Neural network&lt;br&gt;block&lt;br&gt;&lt;/font&gt;" style="rounded=1;whiteSpace=wrap;html=1;fillColor=#f5f5f5;fontColor=#333333;strokeColor=#B3B3B3;strokeWidth=3;" vertex="1" parent="1">
          <mxGeometry x="-460" y="50" width="269" height="100" as="geometry" />
        </mxCell>
        <mxCell id="Qcf1whdZuRaTykeOf3m4-2" style="edgeStyle=orthogonalEdgeStyle;rounded=0;orthogonalLoop=1;jettySize=auto;html=1;entryX=0.5;entryY=0;entryDx=0;entryDy=0;strokeWidth=3;strokeColor=#B3B3B3;exitX=0.5;exitY=1;exitDx=0;exitDy=0;" edge="1" parent="1" source="Qcf1whdZuRaTykeOf3m4-3" target="Qcf1whdZuRaTykeOf3m4-1">
          <mxGeometry relative="1" as="geometry">
            <mxPoint x="-301" y="-10" as="sourcePoint" />
            <mxPoint x="-291" y="370" as="targetPoint" />
          </mxGeometry>
        </mxCell>
        <mxCell id="Qcf1whdZuRaTykeOf3m4-3" value="&lt;font style=&quot;font-size: 40px;&quot; face=&quot;Times New Roman&quot;&gt;$$x$$&lt;/font&gt;" style="text;html=1;strokeColor=none;fillColor=none;align=center;verticalAlign=middle;whiteSpace=wrap;rounded=0;" vertex="1" parent="1">
          <mxGeometry x="-355.75" y="-70" width="60.5" height="60" as="geometry" />
        </mxCell>
        <mxCell id="Qcf1whdZuRaTykeOf3m4-4" value="&lt;font style=&quot;font-size: 40px;&quot; face=&quot;Times New Roman&quot;&gt;$$y$$&lt;/font&gt;" style="text;html=1;strokeColor=none;fillColor=none;align=center;verticalAlign=middle;whiteSpace=wrap;rounded=0;" vertex="1" parent="1">
          <mxGeometry x="-380.5" y="280" width="110" height="40" as="geometry" />
        </mxCell>
        <mxCell id="Qcf1whdZuRaTykeOf3m4-5" style="edgeStyle=orthogonalEdgeStyle;rounded=0;orthogonalLoop=1;jettySize=auto;html=1;strokeWidth=3;strokeColor=#B3B3B3;exitX=0.5;exitY=1;exitDx=0;exitDy=0;" edge="1" parent="1" source="Qcf1whdZuRaTykeOf3m4-1" target="Qcf1whdZuRaTykeOf3m4-4">
          <mxGeometry relative="1" as="geometry">
            <mxPoint x="-315" as="sourcePoint" />
            <mxPoint x="-315" y="60" as="targetPoint" />
          </mxGeometry>
        </mxCell>
      </root>
    </mxGraphModel>
  </diagram>
</mxfile>
